<svg width="16" height="16" viewBox="0 0 16 16" fill="none" xmlns="http://www.w3.org/2000/svg">
<path d="M8.00004 1.33325C7.12456 1.33325 6.25765 1.50569 5.44882 1.84072C4.63998 2.17575 3.90505 2.66682 3.286 3.28587C2.03575 4.53612 1.33337 6.23181 1.33337 7.99992C1.33337 9.76803 2.03575 11.4637 3.286 12.714C3.90505 13.333 4.63998 13.8241 5.44882 14.1591C6.25765 14.4941 7.12456 14.6666 8.00004 14.6666C9.76815 14.6666 11.4638 13.9642 12.7141 12.714C13.9643 11.4637 14.6667 9.76803 14.6667 7.99992C14.6667 7.12444 14.4943 6.25753 14.1592 5.4487C13.8242 4.63986 13.3331 3.90493 12.7141 3.28587C12.095 2.66682 11.3601 2.17575 10.5513 1.84072C9.74243 1.50569 8.87552 1.33325 8.00004 1.33325ZM4.71337 12.1866C5.00004 11.5866 6.74671 10.9999 8.00004 10.9999C9.25337 10.9999 11 11.5866 11.2867 12.1866C10.38 12.9066 9.24004 13.3333 8.00004 13.3333C6.76004 13.3333 5.62004 12.9066 4.71337 12.1866ZM12.24 11.2199C11.2867 10.0599 8.97337 9.66658 8.00004 9.66658C7.02671 9.66658 4.71337 10.0599 3.76004 11.2199C3.08004 10.3333 2.66671 9.21325 2.66671 7.99992C2.66671 5.05992 5.06004 2.66659 8.00004 2.66659C10.94 2.66659 13.3334 5.05992 13.3334 7.99992C13.3334 9.21325 12.92 10.3333 12.24 11.2199ZM8.00004 3.99992C6.70671 3.99992 5.66671 5.03992 5.66671 6.33325C5.66671 7.62659 6.70671 8.66658 8.00004 8.66658C9.29337 8.66658 10.3334 7.62659 10.3334 6.33325C10.3334 5.03992 9.29337 3.99992 8.00004 3.99992ZM8.00004 7.33325C7.73482 7.33325 7.48047 7.22789 7.29293 7.04036C7.1054 6.85282 7.00004 6.59847 7.00004 6.33325C7.00004 6.06804 7.1054 5.81368 7.29293 5.62614C7.48047 5.43861 7.73482 5.33325 8.00004 5.33325C8.26526 5.33325 8.51961 5.43861 8.70715 5.62614C8.89468 5.81368 9.00004 6.06804 9.00004 6.33325C9.00004 6.59847 8.89468 6.85282 8.70715 7.04036C8.51961 7.22789 8.26526 7.33325 8.00004 7.33325Z" fill="#637381"/>
</svg>
