<svg width="20" height="20" viewBox="0 0 20 20" fill="none" xmlns="http://www.w3.org/2000/svg">
<path d="M10.0003 12.9174C9.80555 12.9178 9.61685 12.85 9.46693 12.7257L4.46693 8.55907C4.11254 8.26452 4.06404 7.73845 4.35859 7.38407C4.65314 7.02969 5.17921 6.98119 5.53359 7.27574L10.0003 11.0091L14.4669 7.40907C14.6391 7.26926 14.8599 7.20385 15.0804 7.22731C15.3009 7.25077 15.503 7.36117 15.6419 7.53407C15.7962 7.70729 15.8713 7.93697 15.8492 8.16787C15.827 8.39877 15.7096 8.61 15.5253 8.75074L10.5253 12.7757C10.371 12.8803 10.1862 12.9302 10.0003 12.9174Z" fill="#637381"/>
</svg>
