<svg width="24" height="25" viewBox="0 0 24 25" fill="none" xmlns="http://www.w3.org/2000/svg">
<path d="M16.5 2.49219C16.3594 2.49219 16.2305 2.51953 16.1133 2.57422C15.9961 2.62891 15.8906 2.69531 15.7969 2.77344L6.79688 11.7969C6.70312 11.875 6.62891 11.9766 6.57422 12.1016C6.51953 12.2266 6.49219 12.3594 6.49219 12.5C6.49219 12.6406 6.51953 12.7695 6.57422 12.8867C6.62891 13.0039 6.70312 13.1094 6.79688 13.2031L15.7969 22.2031C15.8906 22.2969 15.9961 22.3711 16.1133 22.4258C16.2305 22.4805 16.3672 22.5078 16.5234 22.5078C16.7891 22.5078 17.0195 22.4102 17.2148 22.2148C17.4102 22.0195 17.5078 21.7812 17.5078 21.5C17.5078 21.3594 17.4805 21.2266 17.4258 21.1016C17.3711 20.9766 17.2969 20.875 17.2031 20.7969L8.90625 12.5L17.2031 4.20312C17.2969 4.10938 17.3711 4 17.4258 3.875C17.4805 3.75 17.5078 3.625 17.5078 3.5C17.5078 3.21875 17.4102 2.98047 17.2148 2.78516C17.0195 2.58984 16.7812 2.49219 16.5 2.49219Z" fill="#637381"/>
</svg>
