<svg width="24" height="24" viewBox="0 0 24 24" fill="none" xmlns="http://www.w3.org/2000/svg">
<path d="M9.50391 6C9.64453 6 9.77734 6.02344 9.90234 6.07031C10.0273 6.11719 10.1289 6.1875 10.207 6.28125L15.2227 11.2969C15.3164 11.375 15.3867 11.4766 15.4336 11.6016C15.4805 11.7266 15.5039 11.8594 15.5039 12C15.5039 12.1406 15.4805 12.2695 15.4336 12.3867C15.3867 12.5039 15.3164 12.6094 15.2227 12.7031L10.207 17.6953C10.1289 17.7891 10.0273 17.8633 9.90234 17.918C9.77734 17.9727 9.64453 18 9.50391 18C9.22266 18 8.98438 17.9023 8.78906 17.707C8.59375 17.5117 8.49609 17.2812 8.49609 17.0156C8.49609 16.8594 8.52344 16.7227 8.57812 16.6055C8.63281 16.4883 8.70703 16.3828 8.80078 16.2891L13.0898 12L8.80078 7.6875C8.70703 7.60938 8.63672 7.50781 8.58984 7.38281C8.54297 7.25781 8.51953 7.125 8.51953 6.98438C8.51953 6.71875 8.61719 6.48828 8.8125 6.29297C9.00781 6.09766 9.23828 6 9.50391 6Z" fill="#637381"/>
</svg>
