<svg width="20" height="20" viewBox="0 0 20 20" fill="none" xmlns="http://www.w3.org/2000/svg">
<g id="icon/outline/undo">
<path id="Vector" d="M17.9102 7.4707C17.6367 6.72852 17.2656 6.04492 16.7969 5.41992C16.3281 4.80794 15.7812 4.27734 15.1562 3.82812C14.5312 3.37891 13.8477 3.0306 13.1055 2.7832C12.3503 2.53581 11.5625 2.41211 10.7422 2.41211C9.70052 2.41211 8.7207 2.60742 7.80273 2.99805C6.88477 3.38867 6.08724 3.92253 5.41016 4.59961L3.33984 6.55273V4.16992C3.33984 3.93555 3.25846 3.73698 3.0957 3.57422C2.93294 3.41146 2.73438 3.33008 2.5 3.33008C2.26562 3.33008 2.06706 3.41146 1.9043 3.57422C1.74154 3.73698 1.66016 3.93555 1.66016 4.16992V8.33008C1.66016 8.3431 1.66341 8.35612 1.66992 8.36914C1.67643 8.38216 1.67969 8.39518 1.67969 8.4082C1.67969 8.42122 1.67969 8.4375 1.67969 8.45703C1.67969 8.47656 1.67969 8.49284 1.67969 8.50586C1.67969 8.72721 1.75781 8.91602 1.91406 9.07227C2.07031 9.22852 2.25911 9.30664 2.48047 9.30664C2.57161 9.30664 2.65951 9.29362 2.74414 9.26758C2.82878 9.24154 2.90365 9.20898 2.96875 9.16992H6.66016C6.89453 9.16992 7.0931 9.08854 7.25586 8.92578C7.41862 8.76302 7.5 8.56445 7.5 8.33008C7.5 8.0957 7.41862 7.89714 7.25586 7.73438C7.0931 7.57161 6.89453 7.49023 6.66016 7.49023H4.76562L6.5625 5.81055C6.875 5.49805 7.21354 5.22461 7.57812 4.99023C7.94271 4.75586 8.33333 4.56706 8.75 4.42383L8.78906 4.4043C9.07552 4.30013 9.38477 4.21875 9.7168 4.16016C10.0488 4.10156 10.3906 4.07227 10.7422 4.07227C11.3932 4.07227 12.0052 4.16992 12.5781 4.36523C13.1641 4.56055 13.7012 4.83073 14.1895 5.17578C14.6777 5.52083 15.1042 5.93425 15.4688 6.41602C15.8333 6.89779 16.1133 7.41862 16.3086 7.97852L16.3281 8.01758C16.4323 8.31706 16.5137 8.63281 16.5723 8.96484C16.6309 9.29688 16.6602 9.64518 16.6602 10.0098C16.6602 10.8171 16.5104 11.5853 16.2109 12.3145C15.8984 13.0306 15.4753 13.6556 14.9414 14.1895C14.4076 14.7233 13.776 15.1465 13.0469 15.459C12.3307 15.7715 11.5625 15.9277 10.7422 15.9277C10.1953 15.9277 9.66797 15.8561 9.16016 15.7129C8.65234 15.5697 8.17708 15.3646 7.73438 15.0977C7.29167 14.8307 6.89453 14.515 6.54297 14.1504C6.17839 13.7858 5.86589 13.3822 5.60547 12.9395L5.58594 12.9004C5.52083 12.7702 5.42318 12.666 5.29297 12.5879C5.16276 12.5098 5.01953 12.4707 4.86328 12.4707C4.62891 12.4707 4.43034 12.5521 4.26758 12.7148C4.10482 12.8776 4.02344 13.0762 4.02344 13.3105C4.02344 13.3887 4.0332 13.4635 4.05273 13.5352C4.07227 13.6068 4.10156 13.6686 4.14062 13.7207C4.46615 14.3066 4.86328 14.834 5.33203 15.3027C5.80078 15.7845 6.31836 16.1947 6.88477 16.5332C7.45117 16.8717 8.0599 17.1322 8.71094 17.3145C9.36198 17.4967 10.0391 17.5879 10.7422 17.5879C11.7969 17.5879 12.7865 17.3926 13.7109 17.002C14.6224 16.5983 15.4232 16.0547 16.1133 15.3711C16.8034 14.6875 17.3438 13.8835 17.7344 12.959C18.138 12.0345 18.3398 11.0514 18.3398 10.0098C18.3398 9.55404 18.3008 9.10807 18.2227 8.67188C18.1445 8.23568 18.0339 7.81575 17.8906 7.41211V7.4707H17.9102Z" fill="#00B8D9"/>
</g>
</svg>
