<svg width="20" height="20" viewBox="0 0 20 20" fill="none" xmlns="http://www.w3.org/2000/svg">
<g id="icon/box">
<path id="Vector" d="M16.8555 5.40088C16.8555 5.38786 16.8555 5.38135 16.8555 5.38135C16.8555 5.38135 16.849 5.37484 16.8359 5.36182C16.7969 5.29671 16.7448 5.24137 16.6797 5.1958C16.6146 5.15023 16.543 5.10791 16.4648 5.06885C16.4388 5.05583 16.4193 5.03955 16.4062 5.02002C16.3932 5.00049 16.3737 4.98421 16.3477 4.97119L11.1523 1.98291C10.9961 1.87874 10.8171 1.80062 10.6152 1.74854C10.4134 1.69645 10.2083 1.67041 10 1.67041C9.79167 1.67041 9.58659 1.69645 9.38477 1.74854C9.18294 1.80062 8.9974 1.87874 8.82812 1.98291H8.84766L3.65234 4.97119C3.6263 4.98421 3.60352 5.00049 3.58398 5.02002C3.56445 5.03955 3.54818 5.05583 3.53516 5.06885C3.45703 5.10791 3.38542 5.15023 3.32031 5.1958C3.25521 5.24137 3.20312 5.29671 3.16406 5.36182C3.15104 5.36182 3.14453 5.36507 3.14453 5.37158C3.14453 5.37809 3.14453 5.38786 3.14453 5.40088C2.94922 5.60921 2.79297 5.8501 2.67578 6.12354C2.55859 6.39697 2.5 6.68994 2.5 7.00244V12.9985C2.5 13.4282 2.60417 13.8188 2.8125 14.1704C3.02083 14.522 3.30078 14.8019 3.65234 15.0103L8.84766 18.0181C9.00391 18.1092 9.17969 18.1841 9.375 18.2427C9.57031 18.3013 9.77865 18.3306 10 18.3306C10.2214 18.3306 10.4297 18.3013 10.625 18.2427C10.8203 18.1841 11.0026 18.1092 11.1719 18.0181H11.1523L16.3477 15.0103C16.6992 14.8019 16.9792 14.522 17.1875 14.1704C17.3958 13.8188 17.5 13.4282 17.5 12.9985V7.00244C17.5 6.68994 17.4414 6.39697 17.3242 6.12354C17.207 5.8501 17.0508 5.60921 16.8555 5.40088ZM9.6875 3.40869C9.72656 3.38265 9.77214 3.36312 9.82422 3.3501C9.8763 3.33708 9.9349 3.33057 10 3.33057C10.0651 3.33057 10.1237 3.33708 10.1758 3.3501C10.2279 3.36312 10.2799 3.38916 10.332 3.42822L14.5898 5.88916L10 8.99463L5.41016 5.88916L9.6875 3.40869ZM4.49219 13.5845C4.40104 13.5194 4.32292 13.4347 4.25781 13.3306C4.19271 13.2264 4.16016 13.1157 4.16016 12.9985V7.06104L9.16016 10.4399V16.2798L4.49219 13.5845ZM15.5078 13.5649L10.8398 16.2798V10.4399L15.8398 7.06104V12.9985C15.8398 13.1157 15.8105 13.2264 15.752 13.3306C15.6934 13.4347 15.612 13.5129 15.5078 13.5649Z" fill="#FFAB00"/>
</g>
</svg>
