<svg width="25" height="24" viewBox="0 0 25 24" fill="none" xmlns="http://www.w3.org/2000/svg">
<path fill-rule="evenodd" clip-rule="evenodd" d="M12.0703 21.9492C12.1641 21.9805 12.2656 21.9961 12.375 21.9961C12.4844 21.9961 12.5859 21.9805 12.6797 21.9492C12.7734 21.918 12.8594 21.8711 12.9375 21.8086C13.0156 21.7617 13.4453 21.4258 14.2266 20.8008C15.0234 20.1758 15.875 19.3477 16.7812 18.3164C17.6875 17.2852 18.5156 16.0898 19.2656 14.7305C20 13.3555 20.3672 11.9023 20.3672 10.3711V10.2773V10.1836C20.3672 9.07422 20.1641 8.02734 19.7578 7.04297C19.3359 6.05859 18.7656 5.19922 18.0469 4.46484C17.3281 3.73047 16.4766 3.14453 15.4922 2.70703C14.5234 2.25391 13.4844 2.01953 12.375 2.00391C11.2656 2.01953 10.2266 2.25391 9.25781 2.70703C8.27344 3.14453 7.42188 3.73047 6.70312 4.46484C5.98438 5.19922 5.41406 6.05859 4.99219 7.04297C4.58594 8.02734 4.38281 9.07422 4.38281 10.1836V10.2773V10.3711C4.38281 11.9023 4.75 13.3555 5.48438 14.7305C6.23438 16.0898 7.0625 17.2852 7.96875 18.3164C8.875 19.3477 9.72656 20.1758 10.5234 20.8008C11.3047 21.4258 11.7344 21.7617 11.8125 21.8086H11.7891C11.8828 21.8711 11.9766 21.918 12.0703 21.9492ZM10.0312 4.53516C10.7656 4.20703 11.5469 4.02734 12.375 3.99609C13.2188 4.02734 14 4.20703 14.7188 4.53516C15.4531 4.86328 16.0898 5.30859 16.6289 5.87109C17.168 6.43359 17.5938 7.08203 17.9062 7.81641C18.2188 8.56641 18.375 9.35547 18.375 10.1836V10.2773V10.3711C18.375 11.418 18.1406 12.4336 17.6719 13.418C17.5275 13.716 17.3758 14.0065 17.2169 14.2893C16.2435 12.8358 14.3243 11.9612 12.375 11.9612C10.4257 11.9612 8.50648 12.8358 7.53313 14.2893C7.37418 14.0065 7.22251 13.716 7.07812 13.418C6.60938 12.4336 6.375 11.418 6.375 10.3711V10.2773V10.1836C6.375 9.35547 6.53125 8.56641 6.84375 7.81641C7.15625 7.08203 7.58203 6.43359 8.12109 5.87109C8.66016 5.30859 9.29688 4.86328 10.0312 4.53516ZM8.88222 16.2931C9.49693 17.0663 10.1221 17.7485 10.7578 18.3398C11.4297 18.9492 11.9688 19.418 12.375 19.7461C12.7812 19.418 13.3203 18.9492 13.9922 18.3398C14.6279 17.7485 15.2531 17.0663 15.8678 16.2931C15.7607 15.1822 14.467 13.9612 12.375 13.9612C10.283 13.9612 8.98935 15.1822 8.88222 16.2931ZM12.375 7.11157C11.8227 7.11157 11.375 7.55929 11.375 8.11157C11.375 8.66386 11.8227 9.11157 12.375 9.11157C12.9273 9.11157 13.375 8.66386 13.375 8.11157C13.375 7.55929 12.9273 7.11157 12.375 7.11157ZM9.375 8.11157C9.375 6.45472 10.7181 5.11157 12.375 5.11157C14.0319 5.11157 15.375 6.45472 15.375 8.11157C15.375 9.76843 14.0319 11.1116 12.375 11.1116C10.7181 11.1116 9.375 9.76843 9.375 8.11157Z" fill="currentColor"/>
</svg>
