<svg width="25" height="24" viewBox="0 0 25 24" fill="none" xmlns="http://www.w3.org/2000/svg">
<path fill-rule="evenodd" clip-rule="evenodd" d="M12.8055 2.85171C12.3632 2.7161 11.8868 2.7161 11.4445 2.85171C11.1255 2.94952 10.8812 3.11532 10.6887 3.26955C10.5134 3.40999 10.322 3.5906 10.1256 3.77605L4.77576 8.8246C4.77 8.82993 4.7643 8.83531 4.75866 8.84074L1.94749 11.4936C1.5175 11.8994 1.5175 12.5573 1.94749 12.963C2.37748 13.3688 3.07463 13.3688 3.50462 12.963L4.44467 12.0759L4.44467 18.5816C4.44464 18.8438 4.4446 19.0992 4.46333 19.3155C4.48389 19.553 4.53241 19.8333 4.68469 20.1153C4.89581 20.5064 5.23269 20.8243 5.64704 21.0235C5.94589 21.1672 6.24289 21.213 6.49458 21.2324C6.72376 21.2501 6.99436 21.25 7.27223 21.25H16.9777C17.2556 21.25 17.5262 21.2501 17.7554 21.2324C18.0071 21.213 18.3041 21.1672 18.6029 21.0235C19.0173 20.8243 19.3542 20.5064 19.5653 20.1153C19.7176 19.8333 19.7661 19.553 19.7866 19.3155C19.8054 19.0992 19.8053 18.8439 19.8053 18.5816L19.8053 12.0759L20.7454 12.963C21.1754 13.3688 21.8725 13.3688 22.3025 12.963C22.7325 12.5573 22.7325 11.8994 22.3025 11.4936L19.4902 8.83963C19.4853 8.83494 19.4804 8.8303 19.4754 8.8257L14.1244 3.77606C13.928 3.59061 13.7366 3.41 13.5613 3.26955C13.3688 3.11532 13.1245 2.94952 12.8055 2.85171ZM17.6032 9.9978L12.5921 5.26893C12.3613 5.05107 12.2343 4.93243 12.1362 4.85377L12.125 4.84492L12.1138 4.85377C12.0157 4.93243 11.8887 5.05107 11.6579 5.26893L6.64678 9.99783V18.5485C6.64678 18.8566 6.64763 19.0252 6.65812 19.1463L6.65938 19.16L6.6739 19.1612C6.80227 19.1711 6.98092 19.1719 7.30741 19.1719H16.9426C17.2691 19.1719 17.4477 19.1711 17.5761 19.1612L17.5906 19.16L17.5919 19.1463C17.6023 19.0252 17.6032 18.8566 17.6032 18.5485V9.9978Z" fill="currentColor"/>
</svg>
