<svg width="25" height="24" viewBox="0 0 25 24" fill="none" xmlns="http://www.w3.org/2000/svg">
<path d="M12.875 14C13.9796 14 14.875 13.1046 14.875 12C14.875 10.8954 13.9796 10 12.875 10C11.7704 10 10.875 10.8954 10.875 12C10.875 13.1046 11.7704 14 12.875 14Z" fill="currentColor"/>
<path d="M19.875 14C20.9796 14 21.875 13.1046 21.875 12C21.875 10.8954 20.9796 10 19.875 10C18.7704 10 17.875 10.8954 17.875 12C17.875 13.1046 18.7704 14 19.875 14Z" fill="currentColor"/>
<path d="M5.875 14C6.97957 14 7.875 13.1046 7.875 12C7.875 10.8954 6.97957 10 5.875 10C4.77043 10 3.875 10.8954 3.875 12C3.875 13.1046 4.77043 14 5.875 14Z" fill="currentColor"/>
</svg>
