<svg width="25" height="24" viewBox="0 0 25 24" fill="none" xmlns="http://www.w3.org/2000/svg">
<path fill-rule="evenodd" clip-rule="evenodd" d="M10.3721 3.28662C7.9297 3.28662 5.94974 5.26658 5.94974 7.70898C5.94974 10.1514 7.9297 12.1313 10.3721 12.1313C12.8145 12.1313 14.7945 10.1514 14.7945 7.70898C14.7945 5.26658 12.8145 3.28662 10.3721 3.28662ZM7.92848 7.70898C7.92848 6.3594 9.02253 5.26536 10.3721 5.26536C11.7217 5.26536 12.8157 6.3594 12.8157 7.70898C12.8157 9.05855 11.7217 10.1526 10.3721 10.1526C9.02253 10.1526 7.92848 9.05855 7.92848 7.70898Z" fill="currentColor"/>
<path d="M16.5944 3.50118C16.048 3.50118 15.605 3.94414 15.605 4.49055C15.605 5.03697 16.048 5.47992 16.5944 5.47992C17.3359 5.47992 18.1798 6.23735 18.1798 7.49442C18.1798 8.75149 17.3359 9.50891 16.5944 9.50891C16.048 9.50891 15.605 9.95187 15.605 10.4983C15.605 11.0447 16.048 11.4877 16.5944 11.4877C18.7024 11.4877 20.1585 9.54887 20.1585 7.49442C20.1585 5.43997 18.7024 3.50118 16.5944 3.50118Z" fill="currentColor"/>
<path d="M16.5944 12.9419C16.048 12.9419 15.605 13.3849 15.605 13.9313C15.605 14.4777 16.048 14.9206 16.5944 14.9206H18.0248C19.0584 14.9206 19.8963 15.7585 19.8963 16.7921C19.8963 17.0357 19.6988 17.2331 19.4552 17.2331H19.0976C18.5512 17.2331 18.1082 17.6761 18.1082 18.2225C18.1082 18.7689 18.5512 19.2119 19.0976 19.2119H19.4552C20.7916 19.2119 21.875 18.1285 21.875 16.7921C21.875 14.6657 20.1512 12.9419 18.0248 12.9419H16.5944Z" fill="currentColor"/>
<path fill-rule="evenodd" clip-rule="evenodd" d="M7.79736 13.5856C5.35496 13.5856 3.375 15.5655 3.375 18.0079C3.375 19.5024 4.58646 20.7138 6.08086 20.7138H14.6633C16.1577 20.7138 17.3692 19.5024 17.3692 18.0079C17.3692 15.5655 15.3892 13.5856 12.9468 13.5856H7.79736ZM5.35374 18.0079C5.35374 16.6584 6.44778 15.5643 7.79736 15.5643H12.9468C14.2964 15.5643 15.3905 16.6584 15.3905 18.0079C15.3905 18.4095 15.0649 18.7351 14.6633 18.7351H6.08086C5.67928 18.7351 5.35374 18.4095 5.35374 18.0079Z" fill="currentColor"/>
</svg>
