<svg width="20" height="20" viewBox="0 0 20 20" fill="none" xmlns="http://www.w3.org/2000/svg">
<g id="camera">
<path id="Vector" d="M16.8164 17.5H3.18359C3.17057 17.5 3.16081 17.5 3.1543 17.5C3.14779 17.5 3.14453 17.5 3.14453 17.5C2.51953 17.5 1.98242 17.2819 1.5332 16.8457C1.08398 16.4095 0.852865 15.8789 0.839844 15.2539V7.53906C0.839844 7.03125 1.00911 6.55273 1.34766 6.10352C1.6862 5.6543 2.16797 5.26693 2.79297 4.94141C2.85807 4.91536 2.92318 4.89583 2.98828 4.88281C3.05339 4.86979 3.11849 4.86328 3.18359 4.86328H5.76172L7.03125 2.89062C7.10938 2.77344 7.20703 2.67904 7.32422 2.60742C7.44141 2.53581 7.57812 2.5 7.73438 2.5H12.2656C12.4219 2.5 12.5586 2.53581 12.6758 2.60742C12.793 2.67904 12.8906 2.77344 12.9688 2.89062L14.2383 4.86328H16.8164C16.8294 4.86328 16.8392 4.86328 16.8457 4.86328C16.8522 4.86328 16.8555 4.86328 16.8555 4.86328C17.4805 4.86328 18.0176 5.08138 18.4668 5.51758C18.916 5.95378 19.1471 6.48438 19.1602 7.10938V7.12891V15.2539C19.1471 15.8789 18.9193 16.4095 18.4766 16.8457C18.0339 17.2819 17.4935 17.5 16.8555 17.5C16.8555 17.5 16.8522 17.5 16.8457 17.5C16.8392 17.5 16.8294 17.5 16.8164 17.5ZM3.39844 6.52344C3.11198 6.67969 2.89062 6.84896 2.73438 7.03125C2.57812 7.21354 2.5 7.38281 2.5 7.53906V15.2539C2.51302 15.4102 2.58138 15.5469 2.70508 15.6641C2.82878 15.7812 2.97526 15.8398 3.14453 15.8398C3.14453 15.8398 3.14779 15.8398 3.1543 15.8398C3.16081 15.8398 3.17057 15.8398 3.18359 15.8398H16.8164C16.8294 15.8398 16.8392 15.8398 16.8457 15.8398C16.8522 15.8398 16.8555 15.8398 16.8555 15.8398C17.0247 15.8398 17.1712 15.7812 17.2949 15.6641C17.4186 15.5469 17.487 15.4102 17.5 15.2539V7.12891C17.487 6.95964 17.4186 6.81641 17.2949 6.69922C17.1712 6.58203 17.0247 6.52344 16.8555 6.52344C16.8555 6.52344 16.8522 6.52344 16.8457 6.52344C16.8392 6.52344 16.8294 6.52344 16.8164 6.52344H13.7891C13.6458 6.52344 13.5124 6.48763 13.3887 6.41602C13.265 6.3444 13.1641 6.25651 13.0859 6.15234L11.8164 4.17969H8.18359L6.91406 6.15234C6.83594 6.25651 6.73503 6.3444 6.61133 6.41602C6.48763 6.48763 6.35417 6.52344 6.21094 6.52344H3.39844ZM10 14.4141C8.98438 14.4141 8.11523 14.0527 7.39258 13.3301C6.66992 12.6074 6.30859 11.7383 6.30859 10.7227C6.30859 9.70703 6.66992 8.83789 7.39258 8.11523C8.11523 7.39258 8.98438 7.03125 10 7.03125C11.0156 7.03125 11.8848 7.39258 12.6074 8.11523C13.3301 8.83789 13.6914 9.70703 13.6914 10.7227C13.6914 11.7383 13.3301 12.6042 12.6074 13.3203C11.8848 14.0365 11.0156 14.401 10 14.4141ZM10 8.71094C9.4401 8.71094 8.96484 8.90625 8.57422 9.29688C8.18359 9.6875 7.98828 10.1628 7.98828 10.7227C7.98828 11.2826 8.18359 11.7578 8.57422 12.1484C8.96484 12.5391 9.4401 12.7344 10 12.7344C10.5599 12.7344 11.0352 12.5391 11.4258 12.1484C11.8164 11.7578 12.0117 11.2826 12.0117 10.7227C12.0117 10.1628 11.8164 9.6875 11.4258 9.29688C11.0352 8.90625 10.5599 8.71094 10 8.71094Z" fill="#8E33FF"/>
</g>
</svg>
