<svg width="24" height="24" viewBox="0 0 24 24" fill="none" xmlns="http://www.w3.org/2000/svg">
<path d="M20.1797 21H3.82031C3.80469 21 3.79297 21 3.78516 21C3.77734 21 3.77344 21 3.77344 21C3.02344 21 2.37891 20.7383 1.83984 20.2148C1.30078 19.6914 1.02344 19.0547 1.00781 18.3047V9.04688C1.00781 8.4375 1.21094 7.86328 1.61719 7.32422C2.02344 6.78516 2.60156 6.32031 3.35156 5.92969C3.42969 5.89844 3.50781 5.875 3.58594 5.85938C3.66406 5.84375 3.74219 5.83594 3.82031 5.83594H6.91406L8.4375 3.46875C8.53125 3.32812 8.64844 3.21484 8.78906 3.12891C8.92969 3.04297 9.09375 3 9.28125 3H14.7188C14.9062 3 15.0703 3.04297 15.2109 3.12891C15.3516 3.21484 15.4688 3.32812 15.5625 3.46875L17.0859 5.83594H20.1797C20.1953 5.83594 20.207 5.83594 20.2148 5.83594C20.2227 5.83594 20.2266 5.83594 20.2266 5.83594C20.9766 5.83594 21.6211 6.09766 22.1602 6.62109C22.6992 7.14453 22.9766 7.78125 22.9922 8.53125V8.55469V18.3047C22.9766 19.0547 22.7031 19.6914 22.1719 20.2148C21.6406 20.7383 20.9922 21 20.2266 21C20.2266 21 20.2227 21 20.2148 21C20.207 21 20.1953 21 20.1797 21ZM4.07812 7.82812C3.73438 8.01562 3.46875 8.21875 3.28125 8.4375C3.09375 8.65625 3 8.85938 3 9.04688V18.3047C3.01562 18.4922 3.09766 18.6562 3.24609 18.7969C3.39453 18.9375 3.57031 19.0078 3.77344 19.0078C3.77344 19.0078 3.77734 19.0078 3.78516 19.0078C3.79297 19.0078 3.80469 19.0078 3.82031 19.0078H20.1797C20.1953 19.0078 20.207 19.0078 20.2148 19.0078C20.2227 19.0078 20.2266 19.0078 20.2266 19.0078C20.4297 19.0078 20.6055 18.9375 20.7539 18.7969C20.9023 18.6562 20.9844 18.4922 21 18.3047V8.55469C20.9844 8.35156 20.9023 8.17969 20.7539 8.03906C20.6055 7.89844 20.4297 7.82812 20.2266 7.82812C20.2266 7.82812 20.2227 7.82812 20.2148 7.82812C20.207 7.82812 20.1953 7.82812 20.1797 7.82812H16.5469C16.375 7.82812 16.2148 7.78516 16.0664 7.69922C15.918 7.61328 15.7969 7.50781 15.7031 7.38281L14.1797 5.01562H9.82031L8.29688 7.38281C8.20312 7.50781 8.08203 7.61328 7.93359 7.69922C7.78516 7.78516 7.625 7.82812 7.45312 7.82812H4.07812ZM12 17.2969C10.7812 17.2969 9.73828 16.8633 8.87109 15.9961C8.00391 15.1289 7.57031 14.0859 7.57031 12.8672C7.57031 11.6484 8.00391 10.6055 8.87109 9.73828C9.73828 8.87109 10.7812 8.4375 12 8.4375C13.2188 8.4375 14.2617 8.87109 15.1289 9.73828C15.9961 10.6055 16.4297 11.6484 16.4297 12.8672C16.4297 14.0859 15.9961 15.125 15.1289 15.9844C14.2617 16.8438 13.2188 17.2812 12 17.2969ZM12 10.4531C11.3281 10.4531 10.7578 10.6875 10.2891 11.1562C9.82031 11.625 9.58594 12.1953 9.58594 12.8672C9.58594 13.5391 9.82031 14.1094 10.2891 14.5781C10.7578 15.0469 11.3281 15.2812 12 15.2812C12.6719 15.2812 13.2422 15.0469 13.7109 14.5781C14.1797 14.1094 14.4141 13.5391 14.4141 12.8672C14.4141 12.1953 14.1797 11.625 13.7109 11.1562C13.2422 10.6875 12.6719 10.4531 12 10.4531Z" fill="#637381"/>
</svg>
