<svg width="16" height="16" viewBox="0 0 16 16" fill="none" xmlns="http://www.w3.org/2000/svg">
<g id="icon/fill/check-circle">
<path id="Vector" d="M7.73877 1.60498C6.8221 1.60498 5.95752 1.77686 5.14502 2.12061C4.33252 2.47477 3.62419 2.95394 3.02002 3.55811C2.41585 4.16227 1.94189 4.8654 1.59814 5.66748C1.24398 6.47998 1.06689 7.34456 1.06689 8.26123C1.06689 9.18831 1.24398 10.0529 1.59814 10.855C1.94189 11.6675 2.41585 12.3758 3.02002 12.98C3.62419 13.5841 4.33252 14.0581 5.14502 14.4019C5.95752 14.756 6.8221 14.9331 7.73877 14.9331C8.65544 14.9331 9.52002 14.756 10.3325 14.4019C11.145 14.0581 11.8534 13.5841 12.4575 12.98C13.0617 12.3758 13.5356 11.6675 13.8794 10.855C14.2336 10.0529 14.4106 9.18831 14.4106 8.26123C14.4106 7.34456 14.2336 6.47998 13.8794 5.66748C13.5252 4.8654 13.0487 4.16227 12.4497 3.55811C11.8507 2.95394 11.145 2.47477 10.3325 2.12061C9.52002 1.77686 8.65544 1.60498 7.73877 1.60498ZM10.895 6.71436L7.22314 10.7144C7.17106 10.7873 7.10075 10.842 7.01221 10.8784C6.92367 10.9149 6.83252 10.9331 6.73877 10.9331C6.64502 10.9331 6.55387 10.9149 6.46533 10.8784C6.37679 10.842 6.30648 10.7873 6.25439 10.7144L4.58252 8.90186C4.53044 8.83936 4.48877 8.76904 4.45752 8.69092C4.42627 8.61279 4.41064 8.53206 4.41064 8.44873C4.41064 8.26123 4.47575 8.10238 4.60596 7.97217C4.73617 7.84196 4.88981 7.77686 5.06689 7.77686C5.17106 7.77686 5.26481 7.79769 5.34814 7.83936C5.43148 7.88102 5.50439 7.93311 5.56689 7.99561L6.73877 9.27686L9.91064 5.80811C9.97314 5.74561 10.0461 5.69613 10.1294 5.65967C10.2127 5.62321 10.3065 5.60498 10.4106 5.60498C10.5877 5.60498 10.7414 5.67008 10.8716 5.80029C11.0018 5.9305 11.0669 6.08415 11.0669 6.26123C11.0669 6.35498 11.0513 6.43831 11.02 6.51123C10.9888 6.58415 10.9471 6.65186 10.895 6.71436Z" fill="#22C55E"/>
</g>
</svg>
