<svg width="17" height="16" viewBox="0 0 17 16" fill="none" xmlns="http://www.w3.org/2000/svg">
<path d="M15.1147 4.00781C15.0314 3.85156 14.9116 3.72656 14.7554 3.63281C14.5991 3.53906 14.4272 3.49219 14.2397 3.49219C14.2189 3.49219 14.2033 3.49219 14.1929 3.49219C14.1825 3.49219 14.172 3.49219 14.1616 3.49219H3.50537C3.49495 3.49219 3.48454 3.49219 3.47412 3.49219C3.4637 3.49219 3.44808 3.49219 3.42725 3.49219C3.23975 3.49219 3.06787 3.53906 2.91162 3.63281C2.75537 3.72656 2.63558 3.85156 2.55225 4.00781C2.521 4.07031 2.49756 4.13802 2.48193 4.21094C2.46631 4.28385 2.4585 4.35677 2.4585 4.42969C2.4585 4.55469 2.47933 4.67448 2.521 4.78906C2.56266 4.90365 2.62516 5.0026 2.7085 5.08594H2.69287L7.896 12.0234C8.00016 12.1693 8.13558 12.2865 8.30225 12.375C8.46891 12.4635 8.646 12.5078 8.8335 12.5078C9.021 12.5078 9.19808 12.4635 9.36475 12.375C9.53141 12.2865 9.66683 12.1693 9.771 12.0234L14.9741 5.08594C15.047 5.0026 15.1043 4.90365 15.146 4.78906C15.1877 4.67448 15.2085 4.55469 15.2085 4.42969C15.2085 4.35677 15.2007 4.28385 15.1851 4.21094C15.1694 4.13802 15.146 4.07031 15.1147 4.00781Z" fill="#637381"/>
</svg>
