<svg width="16" height="16" viewBox="0 0 16 16" fill="none" xmlns="http://www.w3.org/2000/svg">
<g id="icon/downward-alt/fill">
<path id="Vector" d="M14.2812 4.00781C14.1979 3.85156 14.0781 3.72656 13.9219 3.63281C13.7656 3.53906 13.5938 3.49219 13.4062 3.49219C13.3854 3.49219 13.3698 3.49219 13.3594 3.49219C13.349 3.49219 13.3385 3.49219 13.3281 3.49219H2.67188C2.66146 3.49219 2.65104 3.49219 2.64062 3.49219C2.63021 3.49219 2.61458 3.49219 2.59375 3.49219C2.40625 3.49219 2.23438 3.53906 2.07812 3.63281C1.92188 3.72656 1.80208 3.85156 1.71875 4.00781C1.6875 4.07031 1.66406 4.13802 1.64844 4.21094C1.63281 4.28385 1.625 4.35677 1.625 4.42969C1.625 4.55469 1.64583 4.67448 1.6875 4.78906C1.72917 4.90365 1.79167 5.0026 1.875 5.08594H1.85938L7.0625 12.0234C7.16667 12.1693 7.30208 12.2865 7.46875 12.375C7.63542 12.4635 7.8125 12.5078 8 12.5078C8.1875 12.5078 8.36458 12.4635 8.53125 12.375C8.69792 12.2865 8.83333 12.1693 8.9375 12.0234L14.1406 5.08594C14.2135 5.0026 14.2708 4.90365 14.3125 4.78906C14.3542 4.67448 14.375 4.55469 14.375 4.42969C14.375 4.35677 14.3672 4.28385 14.3516 4.21094C14.3359 4.13802 14.3125 4.07031 14.2812 4.00781Z" fill="#637381"/>
</g>
</svg>
