<svg width="24" height="24" viewBox="0 0 24 24" fill="none" xmlns="http://www.w3.org/2000/svg">
<g id="icons/solid/ic-mingcute:close-line">
<path id="primary-shape" fill-rule="evenodd" clip-rule="evenodd" d="M11.9942 13.4086L17.6485 19.0633C17.837 19.2453 18.0894 19.3461 18.3515 19.3438C18.6136 19.3415 18.8643 19.2364 19.0496 19.0511C19.2349 18.8657 19.34 18.615 19.3423 18.353C19.3446 18.0909 19.2438 17.8384 19.0618 17.6498L13.4075 11.9952L19.0618 6.3405C19.2438 6.15197 19.3446 5.89948 19.3423 5.63739C19.34 5.3753 19.2349 5.12459 19.0496 4.93926C18.8643 4.75393 18.6136 4.6488 18.3515 4.64652C18.0894 4.64424 17.837 4.745 17.6485 4.92708L11.9942 10.5818L6.33992 4.92708C6.15056 4.7495 5.89954 4.65256 5.63999 4.65677C5.38043 4.66099 5.13269 4.76603 4.9492 4.94967C4.76571 5.1333 4.66085 5.38113 4.65682 5.64071C4.65279 5.90029 4.7499 6.15125 4.9276 6.3405L10.5809 11.9952L4.9266 17.6498C4.83114 17.742 4.75499 17.8523 4.70261 17.9743C4.65022 18.0963 4.62265 18.2274 4.6215 18.3601C4.62034 18.4929 4.64563 18.6245 4.69589 18.7473C4.74615 18.8702 4.82036 18.9818 4.91421 19.0756C5.00806 19.1695 5.11966 19.2437 5.24249 19.294C5.36533 19.3442 5.49695 19.3695 5.62966 19.3684C5.76238 19.3672 5.89353 19.3397 6.01548 19.2873C6.13742 19.2349 6.24772 19.1587 6.33992 19.0633L11.9942 13.4086Z" fill="#919EAB"/>
</g>
</svg>
