<svg width="24" height="24" viewBox="0 0 24 24" fill="none" xmlns="http://www.w3.org/2000/svg">
<path d="M6.50835 4.31429C6.42253 4.95035 6.38462 5.59494 6.38462 6.23077C6.38462 12.5181 11.4818 17.6154 17.7692 17.6154C18.4051 17.6154 19.0497 17.5775 19.6857 17.4917C19.7219 17.4868 19.762 17.4916 19.8032 17.5089C19.8096 17.5116 19.8157 17.5145 19.8216 17.5175C18.0848 19.6541 15.3793 21 12.3846 21C7.2018 21 3 16.7982 3 11.6154C3 8.6207 4.34592 5.91522 6.48255 4.17844C6.48553 4.18426 6.48839 4.19038 6.49108 4.19679C6.50836 4.23803 6.51323 4.27812 6.50835 4.31429ZM6.42071 4.10286C6.42072 4.10284 6.42104 4.10301 6.42166 4.10341L6.42071 4.10286Z" stroke="#637381" stroke-width="2" stroke-linecap="round" stroke-linejoin="round"/>
</svg>
