<svg width="36" height="36" viewBox="0 0 36 36" fill="none" xmlns="http://www.w3.org/2000/svg">
<rect width="36" height="36" rx="18" fill="#1877F2" fill-opacity="0.1"/>
<path opacity="0.5" d="M21.6794 22.9786C21.5052 23.5122 21.1991 23.9932 20.7894 24.3769C20.1802 24.9478 19.2402 25.1994 17.3611 25.7028C15.4819 26.2061 14.5419 26.4586 13.7294 26.2686C13.0874 26.1189 12.5042 25.7822 12.0536 25.3011C11.4827 24.6919 11.2302 23.7519 10.7269 21.8728L10.2961 20.2628C9.79189 18.3836 9.54022 17.4436 9.72939 16.6311C9.87931 15.989 10.2163 15.4058 10.6977 14.9553C11.3069 14.3844 12.2469 14.1328 14.1261 13.6286C14.4811 13.5336 14.8036 13.4469 15.0969 13.3711L14.8936 14.1261L14.4627 15.7361C13.9586 17.6153 13.7069 18.5544 13.8961 19.3678C14.046 20.0098 14.383 20.5931 14.8644 21.0436C15.4736 21.6144 16.4136 21.8661 18.2927 22.3703C19.9861 22.8236 20.9169 23.0728 21.6794 22.9786Z" fill="#1877F2"/>
<path fill-rule="evenodd" clip-rule="evenodd" d="M25.3585 16.9295L24.9268 18.5395C24.4227 20.4187 24.171 21.3587 23.6002 21.9678C23.1497 22.4488 22.5668 22.7855 21.9252 22.9353C21.8443 22.9545 21.7627 22.9687 21.6793 22.9787C20.9168 23.0728 19.986 22.8237 18.2927 22.3703C16.4135 21.8662 15.4735 21.6145 14.8643 21.0437C14.3832 20.593 14.0465 20.0098 13.8968 19.3678C13.7068 18.5545 13.9585 17.6153 14.4627 15.7362L14.8935 14.1262L15.0968 13.372C15.476 11.9837 15.731 11.2195 16.2202 10.697C16.6707 10.2163 17.2536 9.87994 17.8952 9.73032C18.7085 9.54032 19.6485 9.79199 21.5285 10.2962C23.4068 10.7995 24.3468 11.0512 24.956 11.6212C25.4372 12.072 25.7739 12.6555 25.9235 13.2978C26.1135 14.1112 25.8618 15.0503 25.3585 16.9295ZM17.2102 16.1712C17.2314 16.0919 17.2681 16.0175 17.3181 15.9524C17.3681 15.8873 17.4305 15.8327 17.5016 15.7917C17.5727 15.7507 17.6512 15.724 17.7326 15.7134C17.814 15.7027 17.8967 15.7082 17.976 15.7295L22.001 16.8087C22.0824 16.8279 22.159 16.8634 22.2265 16.9129C22.2939 16.9623 22.3507 17.0248 22.3936 17.0967C22.4364 17.1685 22.4644 17.2482 22.4759 17.331C22.4874 17.4139 22.4821 17.4982 22.4604 17.5789C22.4387 17.6597 22.401 17.7353 22.3496 17.8013C22.2981 17.8672 22.234 17.9221 22.1609 17.9628C22.0878 18.0035 22.0073 18.0291 21.9242 18.0381C21.841 18.0472 21.7569 18.0394 21.6768 18.0153L17.6518 16.937C17.4919 16.894 17.3555 16.7893 17.2727 16.6459C17.1899 16.5024 17.1674 16.3312 17.2102 16.1712ZM16.5635 18.5862C16.6065 18.4262 16.7112 18.2898 16.8546 18.207C16.998 18.1242 17.1685 18.1017 17.3285 18.1445L19.7435 18.792C19.8253 18.8109 19.9024 18.846 19.9703 18.8953C20.0382 18.9446 20.0954 19.0071 20.1387 19.0791C20.1819 19.151 20.2102 19.2309 20.2219 19.314C20.2335 19.3971 20.2284 19.4817 20.2066 19.5627C20.1849 19.6438 20.1471 19.7197 20.0954 19.7858C20.0438 19.8519 19.9793 19.9069 19.9059 19.9476C19.8325 19.9883 19.7517 20.0138 19.6682 20.0226C19.5848 20.0313 19.5004 20.0232 19.4202 19.9987L17.0052 19.352C16.9259 19.3307 16.8515 19.294 16.7864 19.244C16.7213 19.194 16.6667 19.1317 16.6257 19.0606C16.5847 18.9895 16.5581 18.9109 16.5474 18.8295C16.5367 18.7481 16.5422 18.6654 16.5635 18.5862Z" fill="#1877F2"/>
</svg>
