<svg width="91" height="90" viewBox="0 0 91 90" fill="none" xmlns="http://www.w3.org/2000/svg">
<path opacity="0.32" fill-rule="evenodd" clip-rule="evenodd" d="M79.1679 30.8511C73.7688 32.2091 67.3942 32.2993 61.8883 30.6172C59.5605 29.9061 57.7454 28.0927 56.9598 25.7891C55.0027 20.0504 54.5193 13.0261 55.9577 7.61925C52.9796 7.54446 49.5931 7.5 45.75 7.5C32.6841 7.5 24.8979 8.01309 20.4857 8.48921C17.2169 8.84194 14.6963 11.056 14.0843 14.2863C13.1316 19.3146 12 28.7147 12 45C12 61.2853 13.1316 70.6854 14.0843 75.7138C14.6963 78.9441 17.2169 81.1581 20.4857 81.5107C24.8979 81.9868 32.6841 82.5 45.75 82.5C58.8159 82.5 66.6021 81.9868 71.0143 81.5107C74.2832 81.1581 76.8037 78.9441 77.4157 75.7138C78.3684 70.6854 79.5 61.2853 79.5 45C79.5 39.5419 79.3728 34.857 79.1679 30.8511ZM30.75 48.75C28.6789 48.75 27 47.0711 27 45C27 42.9289 28.6789 41.25 30.75 41.25H45.75C47.8211 41.25 49.5 42.9289 49.5 45C49.5 47.0711 47.8211 48.75 45.75 48.75H30.75ZM30.75 65.625C28.6789 65.625 27 63.9461 27 61.875C27 59.8039 28.6789 58.125 30.75 58.125H57C59.0711 58.125 60.75 59.8039 60.75 61.875C60.75 63.9461 59.0711 65.625 57 65.625H30.75Z" fill="#C4CDD5"/>
<path d="M27 61.8751C27 63.9462 28.6789 65.6251 30.75 65.6251H57C59.0711 65.6251 60.75 63.9462 60.75 61.8751C60.75 59.804 59.0711 58.1251 57 58.1251H30.75C28.6789 58.1251 27 59.804 27 61.8751Z" fill="#C4CDD5"/>
<path d="M27 45.0001C27 47.0712 28.6789 48.7501 30.75 48.7501H45.75C47.8211 48.7501 49.5 47.0712 49.5 45.0001C49.5 42.929 47.8211 41.2501 45.75 41.2501H30.75C28.6789 41.2501 27 42.929 27 45.0001Z" fill="#C4CDD5"/>
<path d="M79.1679 30.8512C73.7689 32.2092 67.3943 32.2994 61.8883 30.6174C59.5605 29.9062 57.7455 28.0929 56.9599 25.7892C55.0028 20.0504 54.5192 13.026 55.9577 7.61914C55.9577 7.61914 60.5481 9.37489 68.9856 17.8124C77.4231 26.2499 79.1679 30.8512 79.1679 30.8512Z" fill="#C4CDD5"/>
</svg>
