<svg width="90" height="91" viewBox="0 0 90 91" fill="none" xmlns="http://www.w3.org/2000/svg">
<path opacity="0.32" d="M8.55371 74.4656C8.88622 77.6854 10.9973 80.2341 14.1633 80.9081C19.1606 81.972 28.581 83.25 45 83.25C61.419 83.25 70.8394 81.972 75.8368 80.9081C79.0028 80.2341 81.1138 77.6854 81.4463 74.4656C81.9394 69.6915 82.5 60.9261 82.5 45.75C82.5 30.5739 81.9394 21.8085 81.4463 17.0344C81.1138 13.8146 79.0028 11.2659 75.8366 10.5919C70.8394 9.52804 61.419 8.25 45 8.25C28.581 8.25 19.1606 9.52804 14.1633 10.5919C10.9973 11.2659 8.88622 13.8146 8.55371 17.0344C8.0607 21.8085 7.5 30.5739 7.5 45.75C7.5 60.9261 8.0607 69.6915 8.55371 74.4656Z" fill="#C4CDD5"/>
<path d="M45 37.8411C45 40.0158 44.2316 41.8725 42.6947 43.4112C41.1578 44.9499 39.3033 45.7192 37.1311 45.7192C34.959 45.7192 33.1045 44.9499 31.5676 43.4112C30.0307 41.8725 29.2623 40.0158 29.2623 37.8411C29.2623 35.6665 30.0307 33.8098 31.5676 32.2711C33.1045 30.7324 34.959 29.9631 37.1311 29.9631C39.3033 29.9631 41.1578 30.7324 42.6947 32.2711C44.2316 33.8098 45 35.6665 45 37.8411ZM71.25 28.6706V62.8294C71.25 65.3324 70.3484 67.4865 68.5451 69.2919C66.7418 71.0973 64.5697 72 62.0287 72H27.9713C25.4303 72 23.2582 71.0973 21.4549 69.2919C19.6516 67.4865 18.75 65.3324 18.75 62.8294V28.6706C18.75 26.1266 19.6516 23.9622 21.4549 22.1773C23.2582 20.3924 25.4303 19.5 27.9713 19.5H62.0287C64.5697 19.5 66.7418 20.3924 68.5451 22.1773C70.3484 23.9622 71.25 26.1266 71.25 28.6706ZM27.9713 66.7685H30.7992L55.2664 41.2878C55.4713 41.0416 55.7377 40.8467 56.0656 40.7031C56.3934 40.5595 56.7418 40.4877 57.1107 40.4877C57.4795 40.4877 57.8279 40.5595 58.1557 40.7031C58.4836 40.8467 58.7705 41.0416 59.0164 41.2878L65.9631 48.5504V28.6706C65.9631 27.6038 65.584 26.6805 64.8258 25.9009C64.0676 25.1213 63.1352 24.7315 62.0287 24.7315H27.9713C26.8648 24.7315 25.9324 25.1213 25.1742 25.9009C24.416 26.6805 24.0369 27.6038 24.0369 28.6706V62.8294C24.0369 63.8962 24.416 64.8195 25.1742 65.5991C25.9324 66.3787 26.8648 66.7685 27.9713 66.7685Z" fill="#C4CDD5"/>
</svg>
