<svg width="16" height="17" viewBox="0 0 16 17" fill="none" xmlns="http://www.w3.org/2000/svg">
<g id="icon/outline-folder">
<path id="Vector" d="M12.7969 14.5H3.20312C3.20312 14.5 3.20052 14.5 3.19531 14.5C3.1901 14.5 3.1875 14.5 3.1875 14.5C2.67708 14.5 2.24219 14.3229 1.88281 13.9688C1.52344 13.6146 1.33854 13.1875 1.32812 12.6875V4.35938C1.33854 3.84896 1.52344 3.41146 1.88281 3.04688C2.24219 2.68229 2.67708 2.5 3.1875 2.5C3.19792 2.5 3.20312 2.5 3.20312 2.5H6.20312C6.31771 2.5 6.42708 2.53125 6.53125 2.59375C6.63542 2.65625 6.71354 2.73438 6.76562 2.82812L7.78125 4.5H12.7969C12.7969 4.5 12.7995 4.5 12.8047 4.5C12.8099 4.5 12.8125 4.5 12.8125 4.5C13.3229 4.5 13.7578 4.67708 14.1172 5.03125C14.4766 5.38542 14.6615 5.81771 14.6719 6.32812V12.6875C14.6615 13.1875 14.4766 13.6146 14.1172 13.9688C13.7578 14.3229 13.3229 14.5 12.8125 14.5C12.8125 14.5 12.8099 14.5 12.8047 14.5C12.7995 14.5 12.7969 14.5 12.7969 14.5ZM3.20312 3.84375C3.20312 3.84375 3.20052 3.84375 3.19531 3.84375C3.1901 3.84375 3.1875 3.84375 3.1875 3.84375C3.05208 3.84375 2.93229 3.89323 2.82812 3.99219C2.72396 4.09115 2.67188 4.21354 2.67188 4.35938V12.6875C2.67188 12.8229 2.72135 12.9375 2.82031 13.0312C2.91927 13.125 3.03646 13.1719 3.17188 13.1719C3.18229 13.1719 3.1901 13.1719 3.19531 13.1719C3.20052 13.1719 3.20312 13.1719 3.20312 13.1719H12.7969C12.7969 13.1719 12.7995 13.1719 12.8047 13.1719C12.8099 13.1719 12.8177 13.1719 12.8281 13.1719C12.9635 13.1719 13.0807 13.125 13.1797 13.0312C13.2786 12.9375 13.3281 12.8229 13.3281 12.6875V6.32812C13.3281 6.19271 13.2786 6.07812 13.1797 5.98438C13.0807 5.89062 12.9635 5.84375 12.8281 5.84375C12.8177 5.84375 12.8099 5.84375 12.8047 5.84375C12.7995 5.84375 12.7969 5.84375 12.7969 5.84375H7.40625C7.28125 5.84375 7.16927 5.8125 7.07031 5.75C6.97135 5.6875 6.89062 5.60938 6.82812 5.51562L5.82812 3.84375H3.20312Z" fill="currentColor"/>
</g>
</svg>
