<svg width="20" height="20" viewBox="0 0 20 20" fill="none" xmlns="http://www.w3.org/2000/svg">
<g id="icon/outline/edit-square">
<path id="Vector" d="M14.3555 18.3398H3.96484C3.32682 18.3398 2.7832 18.1152 2.33398 17.666C1.88477 17.2168 1.66016 16.6732 1.66016 16.0352V5.66406C1.66016 5.02604 1.88477 4.47917 2.33398 4.02344C2.7832 3.56771 3.32682 3.33984 3.96484 3.33984H9.16016C9.39453 3.33984 9.5931 3.42122 9.75586 3.58398C9.91862 3.74675 10 3.94531 10 4.17969C10 4.41406 9.91862 4.61263 9.75586 4.77539C9.5931 4.93815 9.39453 5.01953 9.16016 5.01953H3.96484C3.79557 5.01953 3.64583 5.08138 3.51562 5.20508C3.38542 5.32878 3.32031 5.48177 3.32031 5.66406V16.0352C3.32031 16.2174 3.38542 16.3704 3.51562 16.4941C3.64583 16.6178 3.79557 16.6797 3.96484 16.6797H14.3555C14.5247 16.6797 14.6745 16.6178 14.8047 16.4941C14.9349 16.3704 15 16.2174 15 16.0352V11.5039C15 11.2695 15.0814 11.071 15.2441 10.9082C15.4069 10.7454 15.599 10.6641 15.8203 10.6641C16.0547 10.6641 16.2533 10.7454 16.416 10.9082C16.5788 11.071 16.6602 11.2695 16.6602 11.5039V16.0352C16.6602 16.6732 16.4355 17.2168 15.9863 17.666C15.5371 18.1152 14.9935 18.3398 14.3555 18.3398ZM7.28516 14.9219L10.2344 14.1016C10.3255 14.0755 10.4036 14.043 10.4688 14.0039C10.5339 13.9648 10.5924 13.9193 10.6445 13.8672L17.6562 6.01562C17.8646 5.76823 18.0306 5.49154 18.1543 5.18555C18.278 4.87956 18.3398 4.55729 18.3398 4.21875C18.3398 3.86719 18.278 3.53841 18.1543 3.23242C18.0306 2.92643 17.8646 2.65625 17.6562 2.42188C17.4479 2.1875 17.194 2.00195 16.8945 1.86523C16.5951 1.72852 16.276 1.66016 15.9375 1.66016C15.5859 1.66016 15.2637 1.72852 14.9707 1.86523C14.6777 2.00195 14.4206 2.1875 14.1992 2.42188L7.1875 10.2734C7.13542 10.3255 7.0931 10.3809 7.06055 10.4395C7.02799 10.498 7.00521 10.5664 6.99219 10.6445L6.25 13.9453C6.23698 13.9714 6.23047 14.0007 6.23047 14.0332C6.23047 14.0658 6.23047 14.0951 6.23047 14.1211C6.23047 14.3555 6.31185 14.554 6.47461 14.7168C6.63737 14.8796 6.83594 14.9609 7.07031 14.9609C7.10938 14.9609 7.14844 14.9577 7.1875 14.9512C7.22656 14.9447 7.25911 14.9349 7.28516 14.9219ZM15.4492 3.53516C15.5013 3.45703 15.5697 3.39844 15.6543 3.35938C15.7389 3.32031 15.8333 3.30078 15.9375 3.30078C16.0286 3.30078 16.1165 3.32031 16.2012 3.35938C16.2858 3.39844 16.3607 3.45703 16.4258 3.53516C16.5039 3.6263 16.5625 3.73047 16.6016 3.84766C16.6406 3.96484 16.6602 4.08854 16.6602 4.21875C16.6602 4.34896 16.6406 4.47266 16.6016 4.58984C16.5625 4.70703 16.5039 4.8112 16.4258 4.90234L9.55078 12.5586L8.18359 12.9492L8.57422 11.2109L15.4492 3.53516Z" fill="#118D57"/>
</g>
</svg>
