<svg width="33" height="32" viewBox="0 0 33 32" fill="none" xmlns="http://www.w3.org/2000/svg">
<path d="M27.3438 8.6416C27.3438 8.62077 27.3438 8.61035 27.3438 8.61035C27.3438 8.61035 27.3333 8.59994 27.3125 8.5791C27.25 8.47494 27.1667 8.38639 27.0625 8.31348C26.9583 8.24056 26.8438 8.17285 26.7188 8.11035C26.6771 8.08952 26.6458 8.06348 26.625 8.03223C26.6042 8.00098 26.5729 7.97494 26.5312 7.9541L18.2188 3.17285C17.9688 3.00619 17.6823 2.88119 17.3594 2.79785C17.0365 2.71452 16.7083 2.67285 16.375 2.67285C16.0417 2.67285 15.7135 2.71452 15.3906 2.79785C15.0677 2.88119 14.7708 3.00619 14.5 3.17285H14.5312L6.21875 7.9541C6.17708 7.97494 6.14062 8.00098 6.10938 8.03223C6.07812 8.06348 6.05208 8.08952 6.03125 8.11035C5.90625 8.17285 5.79167 8.24056 5.6875 8.31348C5.58333 8.38639 5.5 8.47494 5.4375 8.5791C5.41667 8.5791 5.40625 8.58431 5.40625 8.59473C5.40625 8.60514 5.40625 8.62077 5.40625 8.6416C5.09375 8.97494 4.84375 9.36035 4.65625 9.79785C4.46875 10.2354 4.375 10.7041 4.375 11.2041V20.7979C4.375 21.4854 4.54167 22.1104 4.875 22.6729C5.20833 23.2354 5.65625 23.6833 6.21875 24.0166L14.5312 28.8291C14.7812 28.9749 15.0625 29.0947 15.375 29.1885C15.6875 29.2822 16.0208 29.3291 16.375 29.3291C16.7292 29.3291 17.0625 29.2822 17.375 29.1885C17.6875 29.0947 17.9792 28.9749 18.25 28.8291H18.2188L26.5312 24.0166C27.0938 23.6833 27.5417 23.2354 27.875 22.6729C28.2083 22.1104 28.375 21.4854 28.375 20.7979V11.2041C28.375 10.7041 28.2812 10.2354 28.0938 9.79785C27.9062 9.36035 27.6562 8.97494 27.3438 8.6416ZM15.875 5.4541C15.9375 5.41244 16.0104 5.38119 16.0938 5.36035C16.1771 5.33952 16.2708 5.3291 16.375 5.3291C16.4792 5.3291 16.5729 5.33952 16.6562 5.36035C16.7396 5.38119 16.8229 5.42285 16.9062 5.48535L23.7188 9.42285L16.375 14.3916L9.03125 9.42285L15.875 5.4541ZM7.5625 21.7354C7.41667 21.6312 7.29167 21.4958 7.1875 21.3291C7.08333 21.1624 7.03125 20.9854 7.03125 20.7979V11.2979L15.0312 16.7041V26.0479L7.5625 21.7354ZM25.1875 21.7041L17.7188 26.0479V16.7041L25.7188 11.2979V20.7979C25.7188 20.9854 25.6719 21.1624 25.5781 21.3291C25.4844 21.4958 25.3542 21.6208 25.1875 21.7041Z" fill="#1877F2"/>
</svg>
