<svg width="33" height="32" viewBox="0 0 33 32" fill="none" xmlns="http://www.w3.org/2000/svg">
<path d="M24.1815 4.00025H8.59514C7.43226 4.00025 6.43818 4.40819 5.61291 5.22409C4.78764 6.03998 4.375 7.02937 4.375 8.19225V23.8068C4.375 24.9509 4.78764 25.9356 5.61291 26.7609C6.43818 27.5861 7.43226 27.9988 8.59514 27.9988H24.1815C25.3444 27.9988 26.3385 27.5861 27.1638 26.7609C27.989 25.9356 28.4017 24.9509 28.4017 23.8068V8.19225C28.4017 7.02937 27.989 6.03998 27.1638 5.22409C26.3385 4.40819 25.3444 4.00025 24.1815 4.00025ZM6.79455 23.8068V8.19225C6.79455 7.70459 6.96804 7.28258 7.31503 6.92621C7.66202 6.56984 8.08872 6.39166 8.59514 6.39166H24.1815C24.6879 6.39166 25.1146 6.56984 25.4616 6.92621C25.8086 7.28258 25.9821 7.70459 25.9821 8.19225V17.2796L22.8029 13.9598C22.6904 13.8472 22.5591 13.7582 22.4091 13.6925C22.259 13.6269 22.0996 13.594 21.9308 13.594C21.762 13.594 21.6026 13.6269 21.4525 13.6925C21.3025 13.7582 21.1805 13.8472 21.0868 13.9598L9.88932 25.6074H8.59514C8.08872 25.6074 7.66202 25.4292 7.31503 25.0728C6.96804 24.7164 6.79455 24.2944 6.79455 23.8068ZM24.1815 25.6074H13.2092L21.9308 16.52L25.9821 20.7401V23.8068C25.9821 24.2944 25.8086 24.7164 25.4616 25.0728C25.1146 25.4292 24.6879 25.6074 24.1815 25.6074ZM12.7871 15.9854C13.7812 15.9854 14.6299 15.6338 15.3333 14.9304C16.0367 14.2271 16.3883 13.3783 16.3883 12.3843C16.3883 11.3902 16.0367 10.5415 15.3333 9.83811C14.6299 9.13475 13.7812 8.78307 12.7871 8.78307C11.7931 8.78307 10.9444 9.13475 10.241 9.83811C9.53764 10.5415 9.18596 11.3902 9.18596 12.3843C9.18596 13.3783 9.53764 14.2271 10.241 14.9304C10.9444 15.6338 11.7931 15.9854 12.7871 15.9854ZM12.7871 10.5837C13.2936 10.5837 13.7203 10.7619 14.0673 11.1182C14.4142 11.4746 14.5877 11.8966 14.5877 12.3843C14.5877 12.8907 14.4142 13.3174 14.0673 13.6644C13.7203 14.0114 13.2936 14.1849 12.7871 14.1849C12.2807 14.1849 11.854 14.0114 11.507 13.6644C11.16 13.3174 10.9866 12.8907 10.9866 12.3843C10.9866 11.8966 11.1647 11.4746 11.5211 11.1182C11.8775 10.7619 12.2995 10.5837 12.7871 10.5837Z" fill="#00B8D9"/>
</svg>
