<svg width="33" height="32" viewBox="0 0 33 32" fill="none" xmlns="http://www.w3.org/2000/svg">
<path d="M27.6786 25.6079H26.4688V16.8581C26.4688 16.1829 26.2344 15.6155 25.7655 15.156C25.2966 14.6964 24.7339 14.4573 24.0774 14.4385H21.686C21.0108 14.4573 20.4387 14.6964 19.9698 15.156C19.5009 15.6155 19.2664 16.1829 19.2664 16.8581V25.6079H16.875V12.3847C16.875 11.7283 16.6406 11.1656 16.1717 10.6967C15.7028 10.2278 15.1401 9.99333 14.4836 9.99333H12.0641C11.4076 9.99333 10.8449 10.2278 10.376 10.6967C9.90711 11.1656 9.67265 11.7283 9.67265 12.3847V25.6079H7.28124V5.18237C7.28124 4.86352 7.16402 4.58686 6.92956 4.35241C6.69511 4.11796 6.40908 4.00073 6.07147 4.00073C5.73386 4.00073 5.44782 4.11796 5.21337 4.35241C4.97892 4.58686 4.86169 4.86352 4.86169 5.18237V26.7895C4.86169 27.1271 4.97892 27.4131 5.21337 27.6476C5.44782 27.882 5.73386 27.9993 6.07147 27.9993H27.6786C28.0162 27.9993 28.3022 27.882 28.5367 27.6476C28.7711 27.4131 28.8884 27.1271 28.8884 26.7895C28.8884 26.4706 28.7711 26.194 28.5367 25.9595C28.3022 25.7251 28.0162 25.6079 27.6786 25.6079ZM12.0641 25.6079V12.3847H14.4836V25.6079H12.0641ZM21.686 25.6079V16.8581H24.0774V25.6079H21.686Z" fill="#1877F2"/>
</svg>
