<svg width="33" height="32" viewBox="0 0 33 32" fill="none" xmlns="http://www.w3.org/2000/svg">
<path d="M16.125 28C14.4583 28 12.9062 27.6875 11.4688 27.0625C10.0104 26.4375 8.73438 25.5833 7.64062 24.5C6.54688 23.4167 5.6875 22.1458 5.0625 20.6875C4.4375 19.2292 4.125 17.6667 4.125 16C4.125 14.3542 4.4375 12.8021 5.0625 11.3438C5.6875 9.88542 6.54688 8.61458 7.64062 7.53125C8.73438 6.44792 10.0104 5.59375 11.4688 4.96875C12.9062 4.32292 14.4583 4 16.125 4C17.7917 4 19.3438 4.32292 20.7812 4.96875C22.2396 5.59375 23.5156 6.44792 24.6094 7.53125C25.7031 8.61458 26.5625 9.88542 27.1875 11.3438C27.8125 12.8021 28.125 14.3542 28.125 16C28.125 17.6667 27.8125 19.2292 27.1875 20.6875C26.5625 22.1458 25.7031 23.4167 24.6094 24.5C23.5156 25.5833 22.2396 26.4375 20.7812 27.0625C19.3438 27.6875 17.7917 28 16.125 28ZM16.125 6.6875C14.8333 6.6875 13.625 6.92708 12.5 7.40625C11.3542 7.90625 10.3594 8.57812 9.51562 9.42188C8.67188 10.2656 8.01042 11.25 7.53125 12.375C7.03125 13.5 6.78125 14.7083 6.78125 16C6.78125 17.2917 7.03125 18.5104 7.53125 19.6562C8.01042 20.7812 8.67188 21.7656 9.51562 22.6094C10.3594 23.4531 11.3542 24.125 12.5 24.625C13.625 25.1042 14.8333 25.3438 16.125 25.3438C17.4167 25.3438 18.625 25.1042 19.75 24.625C20.8958 24.125 21.8906 23.4531 22.7344 22.6094C23.5781 21.7656 24.2396 20.7812 24.7188 19.6562C25.2188 18.5104 25.4688 17.2917 25.4688 16C25.4688 14.7292 25.2188 13.5208 24.7188 12.375C24.2396 11.25 23.5781 10.2656 22.7344 9.42188C21.8906 8.57812 20.8958 7.90625 19.75 7.40625C18.625 6.92708 17.4167 6.6875 16.125 6.6875ZM21.4688 18.0938C21.5104 18.0312 21.5417 17.9583 21.5625 17.875C21.5833 17.7917 21.5938 17.6979 21.5938 17.5938C21.5938 17.3229 21.5156 17.0781 21.3594 16.8594C21.2031 16.6406 21 16.4792 20.75 16.375L17.3438 14.9688V9.59375C17.3438 9.23958 17.2135 8.93229 16.9531 8.67188C16.6927 8.41146 16.375 8.28125 16 8.28125C15.625 8.28125 15.3073 8.41146 15.0469 8.67188C14.7865 8.93229 14.6562 9.23958 14.6562 9.59375V15.875C14.6562 16.1458 14.7344 16.3906 14.8906 16.6094C15.0469 16.8281 15.25 16.9896 15.5 17.0938L19.75 18.8438C19.8125 18.8646 19.8906 18.8854 19.9844 18.9062C20.0781 18.9271 20.1667 18.9375 20.25 18.9375C20.5208 18.9375 20.7656 18.8594 20.9844 18.7031C21.2031 18.5469 21.3646 18.3542 21.4688 18.125V18.0938Z" fill="#C4161C"/>
</svg>
