<svg width="25" height="24" viewBox="0 0 25 24" fill="none" xmlns="http://www.w3.org/2000/svg">
<path fill-rule="evenodd" clip-rule="evenodd" d="M9.8721 3.28638C7.4297 3.28638 5.44974 5.26634 5.44974 7.70873C5.44974 10.1511 7.4297 12.1311 9.8721 12.1311C12.3145 12.1311 14.2945 10.1511 14.2945 7.70873C14.2945 5.26634 12.3145 3.28638 9.8721 3.28638ZM7.42848 7.70873C7.42848 6.35916 8.52253 5.26511 9.8721 5.26511C11.2217 5.26511 12.3157 6.35916 12.3157 7.70873C12.3157 9.05831 11.2217 10.1524 9.8721 10.1524C8.52253 10.1524 7.42848 9.05831 7.42848 7.70873Z" fill="#637381"/>
<path d="M16.0944 3.50094C15.548 3.50094 15.105 3.94389 15.105 4.49031C15.105 5.03672 15.548 5.47968 16.0944 5.47968C16.8359 5.47968 17.6798 6.2371 17.6798 7.49417C17.6798 8.75124 16.8359 9.50867 16.0944 9.50867C15.548 9.50867 15.105 9.95163 15.105 10.498C15.105 11.0445 15.548 11.4874 16.0944 11.4874C18.2024 11.4874 19.6585 9.54862 19.6585 7.49417C19.6585 5.43972 18.2024 3.50094 16.0944 3.50094Z" fill="#637381"/>
<path d="M16.0944 12.9417C15.548 12.9417 15.105 13.3846 15.105 13.931C15.105 14.4774 15.548 14.9204 16.0944 14.9204H17.5248C18.5584 14.9204 19.3963 15.7583 19.3963 16.7919C19.3963 17.0354 19.1988 17.2329 18.9552 17.2329H18.5976C18.0512 17.2329 17.6082 17.6759 17.6082 18.2223C17.6082 18.7687 18.0512 19.2116 18.5976 19.2116H18.9552C20.2916 19.2116 21.375 18.1283 21.375 16.7919C21.375 14.6655 19.6512 12.9417 17.5248 12.9417H16.0944Z" fill="#637381"/>
<path fill-rule="evenodd" clip-rule="evenodd" d="M7.29736 13.5853C4.85496 13.5853 2.875 15.5653 2.875 18.0077C2.875 19.5021 4.08646 20.7136 5.58086 20.7136H14.1633C15.6577 20.7136 16.8692 19.5021 16.8692 18.0077C16.8692 15.5653 14.8892 13.5853 12.4468 13.5853H7.29736ZM4.85374 18.0077C4.85374 16.6581 5.94778 15.5641 7.29736 15.5641H12.4468C13.7964 15.5641 14.8905 16.6581 14.8905 18.0077C14.8905 18.4093 14.5649 18.7348 14.1633 18.7348H5.58086C5.17928 18.7348 4.85374 18.4093 4.85374 18.0077Z" fill="#637381"/>
</svg>
