<svg width="17" height="17" viewBox="0 0 17 17" fill="none" xmlns="http://www.w3.org/2000/svg">
<path fill-rule="evenodd" clip-rule="evenodd" d="M6.12176 5.40726C6.29466 5.33521 6.48989 5.33923 6.65968 5.41833L9.11481 6.56203C9.44856 6.7175 9.59308 7.1141 9.43761 7.44785C9.28213 7.78161 8.88553 7.92613 8.55178 7.77065L7.0648 7.07795L7.1586 12.0668L9.49996 13.131V9.49968C9.49996 9.13149 9.79844 8.83301 10.1666 8.83301C10.5348 8.83301 10.8333 9.13149 10.8333 9.49968V13.1663L13.5 12.0552V8.16634C13.5 7.79815 13.7984 7.49968 14.1666 7.49968C14.5348 7.49968 14.8333 7.79815 14.8333 8.16634V12.4997C14.8333 12.7688 14.6715 13.0115 14.423 13.1151L10.423 14.7817C10.2521 14.8529 10.0593 14.8499 9.89076 14.7733L6.49996 13.232L3.10916 14.7733C2.90281 14.867 2.66294 14.8496 2.47237 14.7269C2.28179 14.6041 2.16663 14.393 2.16663 14.1663V7.49968C2.16663 7.23054 2.32845 6.9878 2.57688 6.88429L6.12176 5.40726ZM5.82517 12.0741L5.73004 7.01492L3.49996 7.94412V13.131L5.82517 12.0741Z" fill="currentColor"/>
<path d="M11.8333 5.42229C12.2015 5.42229 12.5 5.12382 12.5 4.75563C12.5 4.38744 12.2015 4.08896 11.8333 4.08896C11.4651 4.08896 11.1666 4.38744 11.1666 4.75563C11.1666 5.12382 11.4651 5.42229 11.8333 5.42229Z" fill="currentColor"/>
<path fill-rule="evenodd" clip-rule="evenodd" d="M11.8333 1.83301C10.3396 1.83301 9.16663 3.08492 9.16663 4.57375C9.16663 4.98568 9.31544 5.40897 9.48234 5.76795C9.6557 6.14083 9.88249 6.51465 10.1052 6.8459C10.5511 7.50922 11.0179 8.05669 11.1163 8.17059L11.1184 8.17291C11.2941 8.37432 11.5518 8.49967 11.8333 8.49967C12.1147 8.49967 12.3725 8.37432 12.5482 8.17291L12.5502 8.17059C12.6487 8.05669 13.1155 7.50922 13.5614 6.8459C13.7841 6.51465 14.0109 6.14083 14.1842 5.76795C14.3511 5.40897 14.5 4.98568 14.5 4.57375C14.5 3.08492 13.327 1.83301 11.8333 1.83301ZM10.5 4.57375C10.5 3.77517 11.1213 3.16634 11.8333 3.16634C12.5453 3.16634 13.1666 3.77517 13.1666 4.57375C13.1666 4.69396 13.1149 4.90542 12.9752 5.20582C12.842 5.49233 12.6562 5.80255 12.4549 6.10204C12.2351 6.42899 12.0079 6.72686 11.8333 6.9457C11.6587 6.72686 11.4315 6.42899 11.2117 6.10204C11.0104 5.80255 10.8246 5.49233 10.6914 5.20582C10.5517 4.90542 10.5 4.69396 10.5 4.57375Z" fill="currentColor"/>
</svg>
