<svg width="25" height="24" viewBox="0 0 25 24" fill="none" xmlns="http://www.w3.org/2000/svg">
<path d="M12.375 14C13.4796 14 14.375 13.1046 14.375 12C14.375 10.8954 13.4796 10 12.375 10C11.2704 10 10.375 10.8954 10.375 12C10.375 13.1046 11.2704 14 12.375 14Z" fill="#637381"/>
<path d="M19.375 14C20.4796 14 21.375 13.1046 21.375 12C21.375 10.8954 20.4796 10 19.375 10C18.2704 10 17.375 10.8954 17.375 12C17.375 13.1046 18.2704 14 19.375 14Z" fill="#637381"/>
<path d="M5.375 14C6.47957 14 7.375 13.1046 7.375 12C7.375 10.8954 6.47957 10 5.375 10C4.27043 10 3.375 10.8954 3.375 12C3.375 13.1046 4.27043 14 5.375 14Z" fill="#637381"/>
</svg>
