<svg width="25" height="24" viewBox="0 0 25 24" fill="none" xmlns="http://www.w3.org/2000/svg">
<path fill-rule="evenodd" clip-rule="evenodd" d="M12.5703 21.9492C12.6641 21.9805 12.7656 21.9961 12.875 21.9961C12.9844 21.9961 13.0859 21.9805 13.1797 21.9492C13.2734 21.918 13.3594 21.8711 13.4375 21.8086C13.5156 21.7617 13.9453 21.4258 14.7266 20.8008C15.5234 20.1758 16.375 19.3477 17.2812 18.3164C18.1875 17.2852 19.0156 16.0898 19.7656 14.7305C20.5 13.3555 20.8672 11.9023 20.8672 10.3711V10.2773V10.1836C20.8672 9.07422 20.6641 8.02734 20.2578 7.04297C19.8359 6.05859 19.2656 5.19922 18.5469 4.46484C17.8281 3.73047 16.9766 3.14453 15.9922 2.70703C15.0234 2.25391 13.9844 2.01953 12.875 2.00391C11.7656 2.01953 10.7266 2.25391 9.75781 2.70703C8.77344 3.14453 7.92188 3.73047 7.20312 4.46484C6.48438 5.19922 5.91406 6.05859 5.49219 7.04297C5.08594 8.02734 4.88281 9.07422 4.88281 10.1836V10.2773V10.3711C4.88281 11.9023 5.25 13.3555 5.98438 14.7305C6.73438 16.0898 7.5625 17.2852 8.46875 18.3164C9.375 19.3477 10.2266 20.1758 11.0234 20.8008C11.8047 21.4258 12.2344 21.7617 12.3125 21.8086H12.2891C12.3828 21.8711 12.4766 21.918 12.5703 21.9492ZM10.5312 4.53516C11.2656 4.20703 12.0469 4.02734 12.875 3.99609C13.7188 4.02734 14.5 4.20703 15.2188 4.53516C15.9531 4.86328 16.5898 5.30859 17.1289 5.87109C17.668 6.43359 18.0938 7.08203 18.4062 7.81641C18.7188 8.56641 18.875 9.35547 18.875 10.1836V10.2773V10.3711C18.875 11.418 18.6406 12.4336 18.1719 13.418C18.0275 13.716 17.8758 14.0065 17.7169 14.2893C16.7435 12.8358 14.8243 11.9612 12.875 11.9612C10.9257 11.9612 9.00648 12.8358 8.03313 14.2893C7.87418 14.0065 7.72251 13.716 7.57812 13.418C7.10938 12.4336 6.875 11.418 6.875 10.3711V10.2773V10.1836C6.875 9.35547 7.03125 8.56641 7.34375 7.81641C7.65625 7.08203 8.08203 6.43359 8.62109 5.87109C9.16016 5.30859 9.79688 4.86328 10.5312 4.53516ZM9.38222 16.2931C9.99693 17.0663 10.6221 17.7485 11.2578 18.3398C11.9297 18.9492 12.4688 19.418 12.875 19.7461C13.2812 19.418 13.8203 18.9492 14.4922 18.3398C15.1279 17.7485 15.7531 17.0663 16.3678 16.2931C16.2607 15.1822 14.967 13.9612 12.875 13.9612C10.783 13.9612 9.48935 15.1822 9.38222 16.2931ZM12.875 7.11157C12.3227 7.11157 11.875 7.55929 11.875 8.11157C11.875 8.66386 12.3227 9.11157 12.875 9.11157C13.4273 9.11157 13.875 8.66386 13.875 8.11157C13.875 7.55929 13.4273 7.11157 12.875 7.11157ZM9.875 8.11157C9.875 6.45472 11.2181 5.11157 12.875 5.11157C14.5319 5.11157 15.875 6.45472 15.875 8.11157C15.875 9.76843 14.5319 11.1116 12.875 11.1116C11.2181 11.1116 9.875 9.76843 9.875 8.11157Z" fill="#C4161C"/>
</svg>
