<svg width="33" height="32" viewBox="0 0 33 32" fill="none" xmlns="http://www.w3.org/2000/svg">
<path d="M26.625 6.67188H6.625C5.70833 6.67188 4.92188 6.99479 4.26562 7.64062C3.60938 8.28646 3.28125 9.07812 3.28125 10.0156V12.6719C3.28125 13.0469 3.41146 13.3646 3.67188 13.625C3.93229 13.8854 4.25 14.0156 4.625 14.0156C5.1875 14.0156 5.66146 14.2083 6.04688 14.5938C6.43229 14.9792 6.625 15.4531 6.625 16.0156C6.625 16.5573 6.43229 17.026 6.04688 17.4219C5.66146 17.8177 5.1875 18.0156 4.625 18.0156C4.25 18.0156 3.93229 18.1458 3.67188 18.4062C3.41146 18.6667 3.28125 18.974 3.28125 19.3281V22.0156C3.28125 22.9323 3.60938 23.7135 4.26562 24.3594C4.92188 25.0052 5.70833 25.3281 6.625 25.3281H26.625C27.5417 25.3281 28.3281 25.0052 28.9844 24.3594C29.6406 23.7135 29.9688 22.9323 29.9688 22.0156V19.3281C29.9688 18.974 29.8385 18.6667 29.5781 18.4062C29.3177 18.1458 29 18.0156 28.625 18.0156C28.0625 18.0156 27.5885 17.8177 27.2031 17.4219C26.8177 17.026 26.625 16.5573 26.625 16.0156C26.625 15.4531 26.8177 14.9792 27.2031 14.5938C27.5885 14.2083 28.0625 14.0156 28.625 14.0156C29 14.0156 29.3177 13.8854 29.5781 13.625C29.8385 13.3646 29.9688 13.0469 29.9688 12.6719V10.0156C29.9688 9.09896 29.6406 8.3125 28.9844 7.65625C28.3281 7 27.5417 6.67188 26.625 6.67188ZM5.96875 11.5469V10.0156C5.96875 9.82812 6.03125 9.66667 6.15625 9.53125C6.28125 9.39583 6.4375 9.32812 6.625 9.32812H26.625C26.8125 9.32812 26.9688 9.39583 27.0938 9.53125C27.2188 9.66667 27.2812 9.82812 27.2812 10.0156V11.5469C26.3229 11.8385 25.5312 12.3906 24.9062 13.2031C24.2812 14.0156 23.9688 14.9531 23.9688 16.0156C23.9688 17.0573 24.276 17.9844 24.8906 18.7969C25.5052 19.6094 26.2917 20.1719 27.25 20.4844H27.2812V22.0156C27.2812 22.1823 27.2188 22.3333 27.0938 22.4688C26.9688 22.6042 26.8125 22.6719 26.625 22.6719H6.625C6.4375 22.6719 6.28125 22.6042 6.15625 22.4688C6.03125 22.3333 5.96875 22.1823 5.96875 22.0156V20.4844C6.92708 20.1927 7.71875 19.6354 8.34375 18.8125C8.96875 17.9896 9.28125 17.0573 9.28125 16.0156C9.28125 14.9531 8.97396 14.0156 8.35938 13.2031C7.74479 12.3906 6.95833 11.8385 6 11.5469H5.96875Z" fill="#FFAB00"/>
</svg>
