<svg width="33" height="32" viewBox="0 0 33 32" fill="none" xmlns="http://www.w3.org/2000/svg">
<path d="M28.2812 20.3438C28.2188 20.3021 27.7083 19.6667 26.75 18.4375C25.7917 17.2083 25.3125 14.9062 25.3125 11.5312C25.2917 10.4062 25.0521 9.36458 24.5938 8.40625C24.1562 7.42708 23.5677 6.57812 22.8281 5.85938C22.0885 5.14062 21.2292 4.57292 20.25 4.15625C19.2708 3.73958 18.2188 3.53125 17.0938 3.53125C17.0521 3.53125 17.0104 3.53125 16.9688 3.53125C16.9271 3.53125 16.8958 3.54167 16.875 3.5625C16.8333 3.54167 16.7969 3.53125 16.7656 3.53125C16.7344 3.53125 16.6979 3.53125 16.6562 3.53125C15.5312 3.53125 14.4792 3.73958 13.5 4.15625C12.5208 4.57292 11.6615 5.14062 10.9219 5.85938C10.1823 6.57812 9.59375 7.42708 9.15625 8.40625C8.69792 9.36458 8.45833 10.3958 8.4375 11.5V11.5312C8.4375 14.9062 7.96354 17.2083 7.01562 18.4375C6.06771 19.6667 5.5625 20.3021 5.5 20.3438C5.3125 20.4688 5.16146 20.6302 5.04688 20.8281C4.93229 21.026 4.875 21.2396 4.875 21.4688C4.875 21.8438 5.00521 22.1615 5.26562 22.4219C5.52604 22.6823 5.84375 22.8125 6.21875 22.8125H11.5938C11.7396 24 12.1979 25.2396 12.9688 26.5312C13.7396 27.8229 15.0417 28.4688 16.875 28.4688C18.7083 28.4688 20.0104 27.8229 20.7812 26.5312C21.5521 25.2396 22.0104 24 22.1562 22.8125H27.5312C27.8438 22.8125 28.1146 22.724 28.3438 22.5469C28.5729 22.3698 28.7292 22.1458 28.8125 21.875V21.8438C28.8333 21.8021 28.849 21.7448 28.8594 21.6719C28.8698 21.599 28.875 21.5312 28.875 21.4688C28.875 21.2396 28.8177 21.026 28.7031 20.8281C28.5885 20.6302 28.4479 20.4688 28.2812 20.3438ZM16.875 25.8125C15.9792 25.8125 15.349 25.4583 14.9844 24.75C14.6198 24.0417 14.3958 23.3958 14.3125 22.8125H19.4375C19.3542 23.3958 19.1302 24.0417 18.7656 24.75C18.401 25.4583 17.7708 25.8125 16.875 25.8125ZM9.09375 20.125C9.71875 18.9792 10.2135 17.7344 10.5781 16.3906C10.9427 15.0469 11.125 13.6458 11.125 12.1875C11.125 12.0833 11.1198 11.9688 11.1094 11.8438C11.099 11.7188 11.0938 11.5938 11.0938 11.4688V11.5312C11.1562 10.0312 11.724 8.77083 12.7969 7.75C13.8698 6.72917 15.1562 6.21875 16.6562 6.21875C16.6979 6.21875 16.7396 6.21875 16.7812 6.21875C16.8229 6.21875 16.8542 6.21875 16.875 6.21875C16.9167 6.21875 16.9531 6.21875 16.9844 6.21875C17.0156 6.21875 17.0521 6.21875 17.0938 6.21875C18.5938 6.21875 19.8802 6.72917 20.9531 7.75C22.026 8.77083 22.5938 10.0208 22.6562 11.5V11.5312C22.6562 11.6146 22.651 11.7188 22.6406 11.8438C22.6302 11.9688 22.625 12.0833 22.625 12.1875C22.625 13.6458 22.8073 15.0521 23.1719 16.4062C23.5365 17.7604 24.0521 19.0312 24.7188 20.2188L24.6562 20.125H9.09375Z" fill="#00B8D9"/>
</svg>
