<svg width="20" height="20" viewBox="0 0 20 20" fill="none" xmlns="http://www.w3.org/2000/svg">
<g id="icon/outline/shop">
<path id="Vector" fill-rule="evenodd" clip-rule="evenodd" d="M8.12495 12.1665C7.66471 12.1665 7.29161 12.5396 7.29161 12.9998V16.6665H4.83327V9.55078C5.27308 9.44231 5.72456 9.24264 6.20058 8.98052C6.78987 9.35468 7.39424 9.62765 8.06191 9.64808C8.75045 9.66915 9.38353 9.42091 10.0232 9.00335C10.6355 9.37104 11.2469 9.62572 11.9019 9.6376C12.578 9.64986 13.1832 9.40421 13.7771 9.00587C14.2324 9.27485 14.6897 9.48534 15.1666 9.57834V16.6665H12.7083V12.9998C12.7083 12.5396 12.3352 12.1665 11.8749 12.1665H8.12495ZM16.8333 9.38223V17.4998C16.8333 17.9601 16.4602 18.3332 15.9999 18.3332H3.99994C3.5397 18.3332 3.1666 17.9601 3.1666 17.4998V9.45546C2.70758 9.26892 2.30836 8.95878 1.93301 8.59965C1.76871 8.44245 1.67578 8.22493 1.67578 7.99753V5.50841C1.67578 5.04818 2.04888 4.67508 2.50911 4.67508H3.1666V2.49984C3.1666 2.0396 3.5397 1.6665 3.99994 1.6665H15.9999C16.4602 1.6665 16.8333 2.0396 16.8333 2.49984V4.67508H17.4745C17.9347 4.67508 18.3078 5.04818 18.3078 5.50841V7.99753C18.3078 8.25027 18.1931 8.48936 17.996 8.64752C17.61 8.9572 17.2277 9.21041 16.8333 9.38223ZM8.95828 16.6665H11.0416V13.8332H8.95828V16.6665ZM4.83327 4.6665V3.33317H15.1666V4.6665H4.83327ZM3.34245 7.62496V6.34175H16.6411V7.58162C16.1857 7.89734 15.8968 7.96984 15.6666 7.9633C15.3504 7.95431 14.94 7.79481 14.2027 7.3039C13.9007 7.10285 13.5034 7.12022 13.2202 7.34684C12.5774 7.86114 12.213 7.9763 11.9321 7.97121C11.621 7.96557 11.2088 7.81204 10.4682 7.30844C10.171 7.10631 9.77764 7.11754 9.49243 7.33632C8.78899 7.87591 8.3977 7.99091 8.11289 7.98219C7.805 7.97277 7.41708 7.81628 6.71738 7.3185C6.44627 7.12563 6.08641 7.11251 5.80197 7.28512C4.89993 7.83255 4.41753 7.98011 4.10555 7.97542C3.90139 7.97235 3.68027 7.9017 3.34245 7.62496Z" fill="#1877F2"/>
</g>
</svg>
