<svg width="33" height="32" viewBox="0 0 33 32" fill="none" xmlns="http://www.w3.org/2000/svg">
<path d="M13.3541 28C12.6875 28 12.1198 27.7604 11.651 27.2812C11.1823 26.8021 10.9479 26.2292 10.9479 25.5625C10.9479 24.8958 11.1823 24.3281 11.651 23.8594C12.1198 23.3906 12.6875 23.1562 13.3541 23.1562C14.0208 23.1562 14.5937 23.3906 15.0729 23.8594C15.552 24.3281 15.7916 24.8958 15.7916 25.5625C15.7916 26.2292 15.552 26.8021 15.0729 27.2812C14.5937 27.7604 14.0208 28 13.3541 28ZM25.3541 28C24.6875 28 24.1198 27.7604 23.651 27.2812C23.1823 26.8021 22.9479 26.2292 22.9479 25.5625C22.9479 24.8958 23.1823 24.3281 23.651 23.8594C24.1198 23.3906 24.6875 23.1562 25.3541 23.1562C26.0208 23.1562 26.5937 23.3906 27.0729 23.8594C27.552 24.3281 27.7916 24.8958 27.7916 25.5625C27.7916 26.2292 27.552 26.8021 27.0729 27.2812C26.5937 27.7604 26.0208 28 25.3541 28ZM14.0416 21.4375C13.1875 21.4375 12.4427 21.1719 11.8073 20.6406C11.1718 20.1094 10.7708 19.4479 10.6041 18.6562V18.625L8.79163 9.53125C8.79163 9.51042 8.79163 9.48958 8.79163 9.46875C8.79163 9.44792 8.78121 9.42708 8.76038 9.40625L7.91663 5.09375H4.63538C4.26038 5.09375 3.94267 4.96354 3.68225 4.70312C3.42183 4.44271 3.29163 4.125 3.29163 3.75C3.29163 3.375 3.42183 3.05729 3.68225 2.79688C3.94267 2.53646 4.26038 2.40625 4.63538 2.40625H9.01038C9.32288 2.40625 9.59892 2.51042 9.8385 2.71875C10.0781 2.92708 10.2291 3.17708 10.2916 3.46875V3.5L11.1979 7.875H28.6354C29.0104 7.875 29.3281 8.00521 29.5885 8.26562C29.8489 8.52604 29.9791 8.84375 29.9791 9.21875C29.9791 9.26042 29.9739 9.30208 29.9635 9.34375C29.9531 9.38542 29.9479 9.42708 29.9479 9.46875L28.1979 18.625C28.0312 19.4375 27.6302 20.1094 26.9948 20.6406C26.3593 21.1719 25.6145 21.4375 24.7604 21.4375C24.7395 21.4375 24.7239 21.4375 24.7135 21.4375C24.7031 21.4375 24.6875 21.4375 24.6666 21.4375H24.6979H14.1041H14.0416ZM11.7291 10.5312L13.2291 18.0938C13.2708 18.3021 13.3645 18.4688 13.5104 18.5938C13.6562 18.7188 13.8333 18.7812 14.0416 18.7812C14.0416 18.7812 14.0468 18.7812 14.0573 18.7812C14.0677 18.7812 14.0729 18.7812 14.0729 18.7812H24.6979C24.7187 18.7812 24.7291 18.7812 24.7291 18.7812C24.7291 18.7812 24.7395 18.7812 24.7604 18.7812C24.9687 18.7812 25.1458 18.7188 25.2916 18.5938C25.4375 18.4688 25.5312 18.3021 25.5729 18.0938L27.0104 10.5312H11.7291Z" fill="#1877F2"/>
</svg>
