<svg width="33" height="32" viewBox="0 0 33 32" fill="none" xmlns="http://www.w3.org/2000/svg">
<path d="M25.4688 29.3281C25.0938 29.3281 24.776 29.1979 24.5156 28.9375C24.2552 28.6771 24.125 28.3594 24.125 27.9844V24.4531C24.125 22.9115 23.7917 21.5625 23.125 20.4062C22.4583 19.25 21.6771 18.6719 20.7812 18.6719H11.4688C10.5729 18.6719 9.79167 19.25 9.125 20.4062C8.45833 21.5625 8.125 22.9115 8.125 24.4531V27.9844C8.125 28.3594 7.99479 28.6771 7.73438 28.9375C7.47396 29.1979 7.15625 29.3281 6.78125 29.3281C6.42708 29.3281 6.11979 29.1979 5.85938 28.9375C5.59896 28.6771 5.46875 28.3594 5.46875 27.9844V24.4531C5.46875 23.2656 5.625 22.151 5.9375 21.1094C6.22917 20.0885 6.64583 19.1979 7.1875 18.4375C7.72917 17.6771 8.36458 17.0781 9.09375 16.6406C9.82292 16.2031 10.6146 15.9844 11.4688 15.9844H20.7812C21.6354 15.9844 22.4271 16.2031 23.1562 16.6406C23.8854 17.0781 24.5208 17.6771 25.0625 18.4375C25.6042 19.1979 26.0208 20.0885 26.3125 21.1094C26.625 22.151 26.7812 23.2656 26.7812 24.4531V27.9844C26.7812 28.3594 26.651 28.6771 26.3906 28.9375C26.1302 29.1979 25.8229 29.3281 25.4688 29.3281ZM20.625 11.1406C20.9792 10.7656 21.2604 10.3385 21.4688 9.85938C21.6771 9.38021 21.7812 8.85938 21.7812 8.29688C21.7812 8.21354 21.7812 8.13542 21.7812 8.0625C21.7812 7.98958 21.7708 7.92188 21.75 7.85938V7.89062C21.6042 6.43229 21 5.20833 19.9375 4.21875C18.875 3.22917 17.6042 2.71354 16.125 2.67188C14.6458 2.71354 13.3698 3.23958 12.2969 4.25C11.224 5.26042 10.625 6.48438 10.5 7.92188V7.95312C10.4792 8.01562 10.4688 8.07292 10.4688 8.125C10.4688 8.17708 10.4688 8.23438 10.4688 8.29688C10.4688 8.85938 10.5729 9.38542 10.7812 9.875C10.9896 10.3646 11.2708 10.7865 11.625 11.1406C12.1667 11.6198 12.7865 12 13.4844 12.2812C14.1823 12.5625 14.9167 12.7031 15.6875 12.7031C15.7708 12.7031 15.849 12.7031 15.9219 12.7031C15.9948 12.7031 16.0729 12.7031 16.1562 12.7031H16.125C16.1667 12.7031 16.2135 12.7031 16.2656 12.7031C16.3177 12.7031 16.375 12.7031 16.4375 12.7031C16.4583 12.7031 16.4844 12.7031 16.5156 12.7031C16.5469 12.7031 16.5833 12.7031 16.625 12.7031C17.3958 12.7031 18.125 12.5625 18.8125 12.2812C19.5 12 20.1042 11.6198 20.625 11.1406ZM16.0625 10.0156C16 10.0365 15.9427 10.0469 15.8906 10.0469C15.8385 10.0469 15.7812 10.0469 15.7188 10.0469C15.3021 10.0469 14.9062 9.97917 14.5312 9.84375C14.1562 9.70833 13.8229 9.51562 13.5312 9.26562C13.4062 9.14062 13.3073 9 13.2344 8.84375C13.1615 8.6875 13.125 8.51562 13.125 8.32812C13.125 8.30729 13.125 8.28646 13.125 8.26562C13.125 8.24479 13.125 8.22396 13.125 8.20312C13.2083 7.43229 13.5312 6.77083 14.0938 6.21875C14.6562 5.66667 15.3333 5.36979 16.125 5.32812C16.8958 5.36979 17.5625 5.65625 18.125 6.1875C18.6875 6.71875 19.0104 7.35938 19.0938 8.10938V8.14062C19.0938 8.16146 19.099 8.1875 19.1094 8.21875C19.1198 8.25 19.125 8.27604 19.125 8.29688C19.125 8.48438 19.0885 8.66146 19.0156 8.82812C18.9427 8.99479 18.8438 9.14062 18.7188 9.26562C18.4271 9.51562 18.0938 9.70833 17.7188 9.84375C17.3438 9.97917 16.9479 10.0469 16.5312 10.0469C16.4688 10.0469 16.4115 10.0469 16.3594 10.0469C16.3073 10.0469 16.25 10.0365 16.1875 10.0156C16.1875 10.0156 16.1823 10.0156 16.1719 10.0156C16.1615 10.0156 16.1458 10.0156 16.125 10.0156C16.1042 10.0156 16.0885 10.0156 16.0781 10.0156C16.0677 10.0156 16.0625 10.0156 16.0625 10.0156Z" fill="#00A76F"/>
</svg>
