<svg width="25" height="24" viewBox="0 0 25 24" fill="none" xmlns="http://www.w3.org/2000/svg">
<path fill-rule="evenodd" clip-rule="evenodd" d="M13.3055 2.85171C12.8632 2.7161 12.3868 2.7161 11.9445 2.85171C11.6255 2.94952 11.3812 3.11532 11.1887 3.26955C11.0134 3.40999 10.822 3.5906 10.6256 3.77605L5.27576 8.8246C5.27 8.82993 5.2643 8.83531 5.25866 8.84074L2.44749 11.4936C2.0175 11.8994 2.0175 12.5573 2.44749 12.963C2.87748 13.3688 3.57463 13.3688 4.00462 12.963L4.94467 12.0759L4.94467 18.5816C4.94464 18.8438 4.9446 19.0992 4.96333 19.3155C4.98389 19.553 5.03241 19.8333 5.18469 20.1153C5.39581 20.5064 5.73269 20.8243 6.14704 21.0235C6.44589 21.1672 6.74289 21.213 6.99458 21.2324C7.22376 21.2501 7.49436 21.25 7.77223 21.25H17.4777C17.7556 21.25 18.0262 21.2501 18.2554 21.2324C18.5071 21.213 18.8041 21.1672 19.1029 21.0235C19.5173 20.8243 19.8542 20.5064 20.0653 20.1153C20.2176 19.8333 20.2661 19.553 20.2866 19.3155C20.3054 19.0992 20.3053 18.8439 20.3053 18.5816L20.3053 12.0759L21.2454 12.963C21.6754 13.3688 22.3725 13.3688 22.8025 12.963C23.2325 12.5573 23.2325 11.8994 22.8025 11.4936L19.9902 8.83963C19.9853 8.83494 19.9804 8.8303 19.9754 8.8257L14.6244 3.77606C14.428 3.59061 14.2366 3.41 14.0613 3.26955C13.8688 3.11532 13.6245 2.94952 13.3055 2.85171ZM18.1032 9.9978L13.0921 5.26893C12.8613 5.05107 12.7343 4.93243 12.6362 4.85377L12.625 4.84492L12.6138 4.85377C12.5157 4.93243 12.3887 5.05107 12.1579 5.26893L7.14678 9.99783V18.5485C7.14678 18.8566 7.14763 19.0252 7.15812 19.1463L7.15938 19.16L7.1739 19.1612C7.30227 19.1711 7.48092 19.1719 7.80741 19.1719H17.4426C17.7691 19.1719 17.9477 19.1711 18.0761 19.1612L18.0906 19.16L18.0919 19.1463C18.1023 19.0252 18.1032 18.8566 18.1032 18.5485V9.9978Z" fill="#637381"/>
</svg>
