<svg width="24" height="24" viewBox="0 0 24 24" fill="none" xmlns="http://www.w3.org/2000/svg">
<path d="M17.8549 3.0011H6.16511C5.29294 3.0011 4.54738 3.30706 3.92843 3.91898C3.30948 4.5309 3 5.27294 3 6.1451V17.856C3 18.7141 3.30948 19.4526 3.92843 20.0716C4.54738 20.6905 5.29294 21 6.16511 21H17.8549C18.7271 21 19.4726 20.6905 20.0916 20.0716C20.7105 19.4526 21.02 18.7141 21.02 17.856V6.1451C21.02 5.27294 20.7105 4.5309 20.0916 3.91898C19.4726 3.30706 18.7271 3.0011 17.8549 3.0011ZM4.81466 17.856V6.1451C4.81466 5.77936 4.94478 5.46285 5.20502 5.19557C5.46527 4.9283 5.78529 4.79466 6.16511 4.79466H17.8549C18.2347 4.79466 18.5547 4.9283 18.815 5.19557C19.0752 5.46285 19.2053 5.77936 19.2053 6.1451V12.9606L16.821 10.4707C16.7366 10.3863 16.6381 10.3195 16.5256 10.2703C16.413 10.2211 16.2934 10.1964 16.1668 10.1964C16.0402 10.1964 15.9207 10.2211 15.8081 10.2703C15.6956 10.3195 15.6042 10.3863 15.5338 10.4707L7.13574 19.2064H6.16511C5.78529 19.2064 5.46527 19.0728 5.20502 18.8055C4.94478 18.5383 4.81466 18.2217 4.81466 17.856ZM17.8549 19.2064H9.62562L16.1668 12.3909L19.2053 15.556V17.856C19.2053 18.2217 19.0752 18.5383 18.815 18.8055C18.5547 19.0728 18.2347 19.2064 17.8549 19.2064ZM9.30911 11.99C10.0547 11.99 10.6912 11.7262 11.2187 11.1987C11.7462 10.6712 12.01 10.0347 12.01 9.28911C12.01 8.54355 11.7462 7.90701 11.2187 7.3795C10.6912 6.85198 10.0547 6.58822 9.30911 6.58822C8.56355 6.58822 7.92701 6.85198 7.3995 7.3795C6.87198 7.90701 6.60822 8.54355 6.60822 9.28911C6.60822 10.0347 6.87198 10.6712 7.3995 11.1987C7.92701 11.7262 8.56355 11.99 9.30911 11.99ZM9.30911 7.93866C9.68892 7.93866 10.009 8.0723 10.2692 8.33958C10.5294 8.60685 10.6596 8.92336 10.6596 9.28911C10.6596 9.66892 10.5294 9.98895 10.2692 10.2492C10.009 10.5094 9.68892 10.6396 9.30911 10.6396C8.9293 10.6396 8.60927 10.5094 8.34903 10.2492C8.08879 9.98895 7.95867 9.66892 7.95867 9.28911C7.95867 8.92336 8.0923 8.60685 8.35958 8.33958C8.62685 8.0723 8.94336 7.93866 9.30911 7.93866Z" fill="#637381"/>
</svg>
