<svg width="24" height="24" viewBox="0 0 24 24" fill="none" xmlns="http://www.w3.org/2000/svg">
<path d="M12 12.7006C13.008 12.7006 13.8251 11.8835 13.8251 10.8755C13.8251 9.86753 13.008 9.05042 12 9.05042C10.992 9.05042 10.1749 9.86753 10.1749 10.8755C10.1749 11.8835 10.992 12.7006 12 12.7006Z" stroke="#637381" stroke-width="2"/>
<path fill-rule="evenodd" clip-rule="evenodd" d="M12 2.87451C7.91085 2.87451 4.69971 6.30174 4.69971 10.3776C4.69971 11.5053 5.1071 12.6641 5.56401 13.6468C6.03861 14.6676 6.65946 15.691 7.26904 16.5978C8.48974 18.4137 9.76777 19.9125 10.0373 20.2243L10.0428 20.2307C10.5239 20.7821 11.2295 21.1252 12 21.1252C12.7705 21.1252 13.4761 20.7821 13.9572 20.2307L13.9627 20.2243C14.2322 19.9125 15.5103 18.4137 16.7309 16.5978C17.3405 15.691 17.9614 14.6676 18.436 13.6468C18.8929 12.6641 19.3003 11.5053 19.3003 10.3776C19.3003 6.30174 16.0891 2.87451 12 2.87451Z" stroke="#637381" stroke-width="2"/>
</svg>
