<svg width="24" height="24" viewBox="0 0 24 24" fill="none" xmlns="http://www.w3.org/2000/svg">
<circle cx="12" cy="11" r="4" fill="white"/>
<path fill-rule="evenodd" clip-rule="evenodd" d="M3.69977 10.3781C3.69977 5.78714 7.32216 1.875 12.0001 1.875C16.6779 1.875 20.3003 5.78714 20.3003 10.3781C20.3003 11.7242 19.8204 13.0417 19.3428 14.0689C18.8381 15.1545 18.1865 16.2256 17.5609 17.1562C16.3074 19.021 14.9994 20.5547 14.7193 20.8787L14.7177 20.8806L14.7122 20.8869L14.7108 20.8886C14.048 21.6483 13.0716 22.1257 12.0001 22.1257C10.9285 22.1257 9.95213 21.6483 9.28935 20.8886L9.28788 20.8869L9.28235 20.8805L9.28079 20.8787C9.00072 20.5547 7.69272 19.021 6.43919 17.1562C5.81358 16.2256 5.162 15.1545 4.65729 14.0689C4.17969 13.0417 3.69977 11.7242 3.69977 10.3781ZM12.0001 10.0509C11.5444 10.0509 11.175 10.4203 11.175 10.876C11.175 11.3317 11.5444 11.7011 12.0001 11.7011C12.4557 11.7011 12.8251 11.3317 12.8251 10.876C12.8251 10.4203 12.4557 10.0509 12.0001 10.0509ZM9.17498 10.876C9.17498 9.31574 10.4398 8.05091 12.0001 8.05091C13.5603 8.05091 14.8251 9.31574 14.8251 10.876C14.8251 12.4362 13.5603 13.7011 12.0001 13.7011C10.4398 13.7011 9.17498 12.4362 9.17498 10.876Z" fill="#919EAB"/>
</svg>
