<svg width="16" height="16" viewBox="0 0 16 16" fill="none" xmlns="http://www.w3.org/2000/svg">
<path d="M8 14.6641C7.92708 14.6641 7.85938 14.6536 7.79688 14.6328C7.73438 14.612 7.67188 14.5807 7.60938 14.5391H7.625C7.57292 14.5078 7.28646 14.2839 6.76562 13.8672C6.23438 13.4505 5.66667 12.8984 5.0625 12.2109C4.45833 11.5234 3.90625 10.7266 3.40625 9.82031C2.91667 8.90365 2.67188 7.9349 2.67188 6.91406C2.67188 6.89323 2.67188 6.8724 2.67188 6.85156C2.67188 6.83073 2.67188 6.8099 2.67188 6.78906C2.67188 6.04948 2.80729 5.35156 3.07812 4.69531C3.35938 4.03906 3.73958 3.46615 4.21875 2.97656C4.69792 2.48698 5.26562 2.09635 5.92188 1.80469C6.56771 1.5026 7.26042 1.34635 8 1.33594C8.73958 1.34635 9.43229 1.5026 10.0781 1.80469C10.7344 2.09635 11.3021 2.48698 11.7812 2.97656C12.2604 3.46615 12.6406 4.03906 12.9219 4.69531C13.1927 5.35156 13.3281 6.04948 13.3281 6.78906C13.3281 6.8099 13.3281 6.83073 13.3281 6.85156C13.3281 6.8724 13.3281 6.89323 13.3281 6.91406C13.3281 7.9349 13.0833 8.90365 12.5938 9.82031C12.0938 10.7266 11.5417 11.5234 10.9375 12.2109C10.3333 12.8984 9.76562 13.4505 9.23438 13.8672C8.71354 14.2839 8.42708 14.5078 8.375 14.5391C8.32292 14.5807 8.26562 14.612 8.20312 14.6328C8.14062 14.6536 8.07292 14.6641 8 14.6641ZM8 2.66406C7.44792 2.6849 6.92708 2.80469 6.4375 3.02344C5.94792 3.24219 5.52344 3.53906 5.16406 3.91406C4.80469 4.28906 4.52083 4.72135 4.3125 5.21094C4.10417 5.71094 4 6.23698 4 6.78906C4 6.8099 4 6.83073 4 6.85156C4 6.8724 4 6.89323 4 6.91406C4 7.61198 4.15625 8.28906 4.46875 8.94531C4.79167 9.61198 5.16927 10.2214 5.60156 10.7734C6.03385 11.3255 6.47396 11.8099 6.92188 12.2266C7.36979 12.6328 7.72917 12.9453 8 13.1641C8.27083 12.9453 8.63021 12.6328 9.07812 12.2266C9.52604 11.8099 9.96615 11.3255 10.3984 10.7734C10.8307 10.2214 11.2083 9.61198 11.5312 8.94531C11.8438 8.28906 12 7.61198 12 6.91406C12 6.89323 12 6.8724 12 6.85156C12 6.83073 12 6.8099 12 6.78906C12 6.23698 11.8958 5.71094 11.6875 5.21094C11.4792 4.72135 11.1953 4.28906 10.8359 3.91406C10.4766 3.53906 10.0521 3.24219 9.5625 3.02344C9.08333 2.80469 8.5625 2.6849 8 2.66406ZM8 9.27344C7.98958 9.27344 7.98177 9.27344 7.97656 9.27344C7.97135 9.27344 7.96354 9.27344 7.95312 9.27344C7.26562 9.27344 6.67969 9.03125 6.19531 8.54688C5.71094 8.0625 5.46875 7.47656 5.46875 6.78906C5.46875 6.10156 5.71094 5.51562 6.19531 5.03125C6.67969 4.54688 7.26562 4.30469 7.95312 4.30469C8.64062 4.30469 9.22656 4.54688 9.71094 5.03125C10.1953 5.51562 10.4375 6.10156 10.4375 6.78906C10.4375 6.78906 10.4375 6.79167 10.4375 6.79688C10.4375 6.80208 10.4375 6.80469 10.4375 6.80469C10.4375 7.48177 10.2005 8.0599 9.72656 8.53906C9.2526 9.01823 8.67708 9.26302 8 9.27344ZM8 5.63281C7.98958 5.63281 7.98177 5.63281 7.97656 5.63281C7.97135 5.63281 7.96354 5.63281 7.95312 5.63281C7.64062 5.63281 7.3724 5.74479 7.14844 5.96875C6.92448 6.19271 6.8125 6.46615 6.8125 6.78906C6.8125 7.10156 6.92448 7.3724 7.14844 7.60156C7.3724 7.83073 7.64062 7.94531 7.95312 7.94531C8.27604 7.94531 8.54948 7.83073 8.77344 7.60156C8.9974 7.3724 9.10938 7.10156 9.10938 6.78906C9.10938 6.77865 9.10938 6.77344 9.10938 6.77344C9.10938 6.46094 9.0026 6.19531 8.78906 5.97656C8.57552 5.75781 8.3125 5.64323 8 5.63281Z" fill="currentColor"/>
</svg>
