<svg width="18" height="12" viewBox="0 0 18 12" fill="none" xmlns="http://www.w3.org/2000/svg">
<path d="M15.25 11.8301H2.75C2.17708 11.8301 1.68555 11.6283 1.27539 11.2246C0.865234 10.821 0.660156 10.3262 0.660156 9.74023V8.08008C0.660156 7.8457 0.741536 7.64714 0.904297 7.48438C1.06706 7.32161 1.26562 7.24023 1.5 7.24023C1.85156 7.24023 2.14779 7.11979 2.38867 6.87891C2.62956 6.63802 2.75 6.3418 2.75 5.99023C2.75 5.65169 2.62956 5.35872 2.38867 5.11133C2.14779 4.86393 1.85156 4.74023 1.5 4.74023C1.26562 4.74023 1.06706 4.65885 0.904297 4.49609C0.741536 4.33333 0.660156 4.14128 0.660156 3.91992V2.24023C0.660156 1.66732 0.865234 1.17904 1.27539 0.775391C1.68555 0.371745 2.17708 0.169922 2.75 0.169922H15.25C15.8229 0.169922 16.3145 0.371745 16.7246 0.775391C17.1348 1.17904 17.3398 1.66732 17.3398 2.24023V3.91992C17.3398 4.14128 17.2585 4.33333 17.0957 4.49609C16.9329 4.65885 16.7344 4.74023 16.5 4.74023C16.1484 4.74023 15.8522 4.86393 15.6113 5.11133C15.3704 5.35872 15.25 5.65169 15.25 5.99023C15.25 6.3418 15.3704 6.63802 15.6113 6.87891C15.8522 7.11979 16.1484 7.24023 16.5 7.24023C16.7344 7.24023 16.9329 7.32161 17.0957 7.48438C17.2585 7.64714 17.3398 7.8457 17.3398 8.08008V9.74023C17.3398 10.3132 17.1348 10.8047 16.7246 11.2148C16.3145 11.625 15.8229 11.8301 15.25 11.8301ZM2.33984 8.7832V9.74023C2.33984 9.85742 2.37891 9.95833 2.45703 10.043C2.53516 10.1276 2.63281 10.1699 2.75 10.1699H15.25C15.3672 10.1699 15.4648 10.1276 15.543 10.043C15.6211 9.95833 15.6602 9.85742 15.6602 9.74023V8.7832C15.0612 8.60091 14.5664 8.25586 14.1758 7.74805C13.7852 7.24023 13.5898 6.6543 13.5898 5.99023C13.5898 5.33919 13.7819 4.75977 14.166 4.25195C14.5501 3.74414 15.0417 3.39258 15.6406 3.19727H15.6602V2.24023C15.6602 2.13607 15.6211 2.04167 15.543 1.95703C15.4648 1.8724 15.3672 1.83008 15.25 1.83008H2.75C2.63281 1.83008 2.53516 1.8724 2.45703 1.95703C2.37891 2.04167 2.33984 2.13607 2.33984 2.24023V3.19727C2.9388 3.37956 3.43359 3.72786 3.82422 4.24219C4.21484 4.75651 4.41016 5.33919 4.41016 5.99023C4.41016 6.6543 4.2181 7.24023 3.83398 7.74805C3.44987 8.25586 2.95833 8.60091 2.35938 8.7832H2.33984Z" fill="#00B8D9"/>
</svg>
