<svg width="40" height="40" viewBox="0 0 40 40" fill="none" xmlns="http://www.w3.org/2000/svg">
<path d="M0 20C0 8.95431 8.95431 0 20 0C31.0457 0 40 8.95431 40 20C40 31.0457 31.0457 40 20 40C8.95431 40 0 31.0457 0 20Z" fill="#FFAB00" fill-opacity="0.12"/>
<path fill-rule="evenodd" clip-rule="evenodd" d="M20 30C25.5228 30 30 25.5228 30 20C30 14.4772 25.5228 10 20 10C14.4772 10 10 14.4772 10 20C10 25.5228 14.4772 30 20 30ZM21.0052 22.9912C20.7633 23.1753 20.3702 23.2673 19.826 23.2673C19.2918 23.2673 18.818 23.1891 18.4048 23.0326C18.2322 22.9635 18.0728 22.8911 17.9266 22.8155C17.5837 22.6383 17.1406 22.5651 16.8918 22.8601C16.7528 23.025 16.6661 23.2209 16.6661 23.4466C16.6661 23.8331 16.8929 24.1551 17.3465 24.4128C17.8101 24.6613 18.4098 24.8222 19.1456 24.8958V25.1719C19.1456 25.4847 19.2262 25.701 19.3875 25.8206C19.5589 25.9402 19.831 26 20.2039 26C20.2555 26 20.3076 25.9988 20.36 25.9965C20.7678 25.9786 21.0506 25.6139 21.0506 25.2056V24.8269C21.9073 24.6797 22.5574 24.3898 23.0009 23.9573C23.4444 23.5157 23.6661 22.9774 23.6661 22.3426C23.6661 21.6249 23.4192 21.0543 22.9253 20.6311C22.4415 20.2079 21.746 19.8674 20.8389 19.6098L19.9923 19.3751C19.6496 19.2739 19.3925 19.1636 19.2212 19.0439C19.0599 18.9243 18.9793 18.7679 18.9793 18.5746C18.9793 18.3354 19.1002 18.1422 19.3422 17.995C19.5941 17.8386 19.9721 17.7604 20.4761 17.7604C20.9296 17.7604 21.3479 17.8155 21.7309 17.926C21.8541 17.9577 21.9694 17.9916 22.0767 18.0279C22.4522 18.1546 22.9256 18.1803 23.1152 17.8323C23.1865 17.7015 23.2277 17.5572 23.2277 17.4015C23.2277 17.0518 23.0261 16.7712 22.6229 16.5596C22.2198 16.3387 21.6956 16.1962 21.0506 16.1318V15.8281C21.0506 15.5153 20.9649 15.299 20.7936 15.1794C20.6323 15.0598 20.3652 15 19.9923 15C19.9407 15 19.8886 15.0012 19.8362 15.0034C19.4284 15.0214 19.1456 15.3862 19.1456 15.7944V16.1869C18.3594 16.3249 17.7547 16.601 17.3314 17.015C16.908 17.4291 16.6964 17.949 16.6964 18.5746C16.6964 18.9427 16.7619 19.2602 16.8929 19.527C17.0239 19.7938 17.2054 20.0238 17.4372 20.217C17.669 20.4103 17.9512 20.5759 18.2838 20.7139C18.6164 20.8519 18.9894 20.9807 19.4026 21.1004L20.2342 21.3488C20.6172 21.4592 20.9044 21.5881 21.0959 21.7353C21.2874 21.8825 21.3832 22.0757 21.3832 22.3149C21.3832 22.5817 21.2572 22.8072 21.0052 22.9912Z" fill="#FFAB00"/>
</svg>
