<svg width="40" height="41" viewBox="0 0 40 41" fill="none" xmlns="http://www.w3.org/2000/svg">
<path d="M0 20.5508C0 9.50509 8.95431 0.550781 20 0.550781C31.0457 0.550781 40 9.50509 40 20.5508C40 31.5965 31.0457 40.5508 20 40.5508C8.95431 40.5508 0 31.5965 0 20.5508Z" fill="#FFAB00" fill-opacity="0.12"/>
<path fill-rule="evenodd" clip-rule="evenodd" d="M20 30.5508C25.5228 30.5508 30 26.0736 30 20.5508C30 15.0279 25.5228 10.5508 20 10.5508C14.4772 10.5508 10 15.0279 10 20.5508C10 26.0736 14.4772 30.5508 20 30.5508ZM21.0052 23.542C20.7633 23.726 20.3702 23.818 19.826 23.818C19.2918 23.818 18.818 23.7398 18.4048 23.5834C18.2322 23.5142 18.0728 23.4419 17.9266 23.3663C17.5837 23.189 17.1406 23.1159 16.8918 23.4109C16.7528 23.5757 16.6661 23.7717 16.6661 23.9974C16.6661 24.3839 16.8929 24.7059 17.3465 24.9636C17.8101 25.212 18.4098 25.373 19.1456 25.4466V25.7227C19.1456 26.0355 19.2262 26.2517 19.3875 26.3714C19.5589 26.491 19.831 26.5508 20.2039 26.5508C20.2555 26.5508 20.3076 26.5496 20.36 26.5473C20.7678 26.5294 21.0506 26.1646 21.0506 25.7564V25.3776C21.9073 25.2304 22.5574 24.9406 23.0009 24.5081C23.4444 24.0665 23.6661 23.5282 23.6661 22.8933C23.6661 22.1756 23.4192 21.6051 22.9253 21.1819C22.4415 20.7586 21.746 20.4182 20.8389 20.1606L19.9923 19.9259C19.6496 19.8247 19.3925 19.7143 19.2212 19.5947C19.0599 19.4751 18.9793 19.3187 18.9793 19.1254C18.9793 18.8862 19.1002 18.693 19.3422 18.5458C19.5941 18.3893 19.9721 18.3111 20.4761 18.3111C20.9296 18.3111 21.3479 18.3663 21.7309 18.4767C21.8541 18.5085 21.9694 18.5424 22.0767 18.5787C22.4522 18.7054 22.9256 18.7311 23.1152 18.3831C23.1865 18.2522 23.2277 18.108 23.2277 17.9523C23.2277 17.6026 23.0261 17.322 22.6229 17.1104C22.2198 16.8895 21.6956 16.7469 21.0506 16.6825V16.3789C21.0506 16.066 20.9649 15.8498 20.7936 15.7302C20.6323 15.6106 20.3652 15.5508 19.9923 15.5508C19.9407 15.5508 19.8886 15.5519 19.8362 15.5542C19.4284 15.5722 19.1456 15.937 19.1456 16.3452V16.7377C18.3594 16.8757 17.7547 17.1518 17.3314 17.5658C16.908 17.9799 16.6964 18.4997 16.6964 19.1254C16.6964 19.4935 16.7619 19.8109 16.8929 20.0778C17.0239 20.3446 17.2054 20.5746 17.4372 20.7678C17.669 20.9611 17.9512 21.1267 18.2838 21.2647C18.6164 21.4027 18.9894 21.5315 19.4026 21.6512L20.2342 21.8996C20.6172 22.01 20.9044 22.1388 21.0959 22.286C21.2874 22.4333 21.3832 22.6265 21.3832 22.8657C21.3832 23.1325 21.2572 23.358 21.0052 23.542Z" fill="#FFAB00"/>
</svg>
