<svg width="36" height="36" viewBox="0 0 36 36" fill="none" xmlns="http://www.w3.org/2000/svg">
<rect width="36" height="36" rx="18" fill="#1877F2" fill-opacity="0.1"/>
<g opacity="0.32">
<path d="M18.4868 14.475C18.709 14.0284 18.834 13.5249 18.834 12.9922C18.834 12.4595 18.709 11.956 18.4868 11.5094C18.9421 10.8924 19.6742 10.4922 20.4998 10.4922C21.8805 10.4922 22.9998 11.6115 22.9998 12.9922C22.9998 14.3729 21.8805 15.4922 20.4998 15.4922C19.6742 15.4922 18.9421 15.092 18.4868 14.475Z" fill="#1877F2"/>
<path d="M19.7162 24.4636C20.2134 24.5894 20.7598 24.6589 21.3331 24.6589C23.6343 24.6589 25.4998 23.5396 25.4998 22.1589C25.4998 20.7781 23.6343 19.6589 21.3331 19.6589C20.759 19.6589 20.212 19.7285 19.7143 19.8546C20.7176 20.4532 21.334 21.2653 21.334 22.1597C21.334 23.0535 20.7184 23.8651 19.7162 24.4636Z" fill="#1877F2"/>
</g>
<path d="M15.5008 16.3249C17.3418 16.3249 18.8341 14.8325 18.8341 12.9915C18.8341 11.1506 17.3418 9.6582 15.5008 9.6582C13.6599 9.6582 12.1675 11.1506 12.1675 12.9915C12.1675 14.8325 13.6599 16.3249 15.5008 16.3249Z" fill="#1877F2"/>
<path d="M15.5008 25.4924C18.7225 25.4924 21.3341 24 21.3341 22.159C21.3341 20.3181 18.7225 18.8257 15.5008 18.8257C12.2792 18.8257 9.66748 20.3181 9.66748 22.159C9.66748 24 12.2792 25.4924 15.5008 25.4924Z" fill="#1877F2"/>
</svg>
