<svg width="41" height="40" viewBox="0 0 41 40" fill="none" xmlns="http://www.w3.org/2000/svg">
<path d="M0.833496 20C0.833496 8.95431 9.7878 0 20.8335 0C31.8792 0 40.8335 8.95431 40.8335 20C40.8335 31.0457 31.8792 40 20.8335 40C9.7878 40 0.833496 31.0457 0.833496 20Z" fill="#C4161C" fill-opacity="0.12"/>
<path fill-rule="evenodd" clip-rule="evenodd" d="M20.5288 29.9492C20.6226 29.9805 20.7241 29.9961 20.8335 29.9961C20.9429 29.9961 21.0444 29.9805 21.1382 29.9492C21.2319 29.918 21.3179 29.8711 21.396 29.8086C21.4741 29.7617 21.9038 29.4258 22.6851 28.8008C23.4819 28.1758 24.3335 27.3477 25.2397 26.3164C26.146 25.2852 26.9741 24.0898 27.7241 22.7305C28.4585 21.3555 28.8257 19.9023 28.8257 18.3711V18.2773V18.1836C28.8257 17.0742 28.6226 16.0273 28.2163 15.043C27.7944 14.0586 27.2241 13.1992 26.5054 12.4648C25.7866 11.7305 24.9351 11.1445 23.9507 10.707C22.9819 10.2539 21.9429 10.0195 20.8335 10.0039C19.7241 10.0195 18.6851 10.2539 17.7163 10.707C16.7319 11.1445 15.8804 11.7305 15.1616 12.4648C14.4429 13.1992 13.8726 14.0586 13.4507 15.043C13.0444 16.0273 12.8413 17.0742 12.8413 18.1836V18.2773V18.3711C12.8413 19.9023 13.2085 21.3555 13.9429 22.7305C14.6929 24.0898 15.521 25.2852 16.4272 26.3164C17.3335 27.3477 18.1851 28.1758 18.9819 28.8008C19.7632 29.4258 20.1929 29.7617 20.271 29.8086H20.2476C20.3413 29.8711 20.4351 29.918 20.5288 29.9492ZM18.4897 12.5352C19.2241 12.207 20.0054 12.0273 20.8335 11.9961C21.6772 12.0273 22.4585 12.207 23.1772 12.5352C23.9116 12.8633 24.5483 13.3086 25.0874 13.8711C25.6265 14.4336 26.0522 15.082 26.3647 15.8164C26.6772 16.5664 26.8335 17.3555 26.8335 18.1836V18.2773V18.3711C26.8335 19.418 26.5991 20.4336 26.1304 21.418C25.986 21.716 25.8343 22.0065 25.6754 22.2893C24.702 20.8358 22.7828 19.9612 20.8335 19.9612C18.8842 19.9612 16.965 20.8358 15.9916 22.2893C15.8327 22.0065 15.681 21.716 15.5366 21.418C15.0679 20.4336 14.8335 19.418 14.8335 18.3711V18.2773V18.1836C14.8335 17.3555 14.9897 16.5664 15.3022 15.8164C15.6147 15.082 16.0405 14.4336 16.5796 13.8711C17.1187 13.3086 17.7554 12.8633 18.4897 12.5352ZM17.3407 24.2931C17.9554 25.0663 18.5806 25.7485 19.2163 26.3398C19.8882 26.9492 20.4272 27.418 20.8335 27.7461C21.2397 27.418 21.7788 26.9492 22.4507 26.3398C23.0864 25.7485 23.7116 25.0663 24.3263 24.2931C24.2191 23.1822 22.9255 21.9612 20.8335 21.9612C18.7415 21.9612 17.4478 23.1822 17.3407 24.2931ZM20.8335 15.1116C20.2812 15.1116 19.8335 15.5593 19.8335 16.1116C19.8335 16.6639 20.2812 17.1116 20.8335 17.1116C21.3858 17.1116 21.8335 16.6639 21.8335 16.1116C21.8335 15.5593 21.3858 15.1116 20.8335 15.1116ZM17.8335 16.1116C17.8335 14.4547 19.1766 13.1116 20.8335 13.1116C22.4904 13.1116 23.8335 14.4547 23.8335 16.1116C23.8335 17.7684 22.4904 19.1116 20.8335 19.1116C19.1766 19.1116 17.8335 17.7684 17.8335 16.1116Z" fill="#C4161C"/>
</svg>
