<svg width="16" height="16" viewBox="0 0 16 16" fill="none" xmlns="http://www.w3.org/2000/svg">
<path d="M12.7812 14.6797C12.7604 14.6797 12.737 14.6771 12.7109 14.6719C12.6849 14.6667 12.6562 14.6641 12.625 14.6641C12.1042 14.6016 11.599 14.513 11.1094 14.3984C10.6198 14.2839 10.1432 14.1432 9.67969 13.9766C9.21615 13.8099 8.76562 13.6172 8.32812 13.3984C7.89062 13.1797 7.46875 12.9401 7.0625 12.6797L7.10938 12.7109C6.72396 12.4609 6.35417 12.1953 6 11.9141C5.65625 11.6224 5.32552 11.3203 5.00781 11.0078C4.6901 10.6953 4.39062 10.3672 4.10938 10.0234C3.82812 9.66927 3.56771 9.30469 3.32812 8.92969L3.29688 8.88281C3.03646 8.4974 2.80208 8.08594 2.59375 7.64844C2.375 7.22135 2.18229 6.77865 2.01562 6.32031C1.84896 5.86198 1.70833 5.39323 1.59375 4.91406C1.48958 4.42448 1.40625 3.92969 1.34375 3.42969V3.36719C1.34375 3.33594 1.34115 3.30729 1.33594 3.28125C1.33073 3.25521 1.32812 3.22656 1.32812 3.19531C1.32812 2.70573 1.49219 2.28385 1.82031 1.92969C2.14844 1.57552 2.55208 1.3724 3.03125 1.32031C3.0625 1.32031 3.09115 1.32031 3.11719 1.32031C3.14323 1.32031 3.17188 1.32031 3.20312 1.32031H5.03125C5.51042 1.32031 5.92448 1.47656 6.27344 1.78906C6.6224 2.10156 6.82812 2.48698 6.89062 2.94531V2.96094C6.93229 3.2526 6.98698 3.53125 7.05469 3.79688C7.1224 4.0625 7.20312 4.32031 7.29688 4.57031C7.32812 4.65365 7.35156 4.74479 7.36719 4.84375C7.38281 4.94271 7.39062 5.04427 7.39062 5.14844C7.39062 5.39844 7.34115 5.63802 7.24219 5.86719C7.14323 6.09635 7.01042 6.29427 6.84375 6.46094L6.45312 6.85156C6.79688 7.39323 7.19271 7.88802 7.64062 8.33594C8.08854 8.78385 8.57292 9.17448 9.09375 9.50781L9.125 9.53906L9.51562 9.13281C9.69271 8.96615 9.89323 8.83333 10.1172 8.73438C10.3411 8.63542 10.5833 8.58594 10.8438 8.58594C10.9583 8.58594 11.0729 8.59635 11.1875 8.61719C11.3021 8.63802 11.4115 8.66927 11.5156 8.71094H11.5C11.7188 8.79427 11.9583 8.86979 12.2188 8.9375C12.4792 9.00521 12.7448 9.0599 13.0156 9.10156H13.0469C13.5052 9.16406 13.8906 9.36979 14.2031 9.71875C14.5156 10.0677 14.6719 10.4818 14.6719 10.9609C14.6719 10.9609 14.6719 10.9635 14.6719 10.9688C14.6719 10.974 14.6719 10.9818 14.6719 10.9922V12.7891C14.6719 12.7891 14.6719 12.7917 14.6719 12.7969C14.6719 12.8021 14.6719 12.8047 14.6719 12.8047C14.6719 13.3151 14.4896 13.7526 14.125 14.1172C13.7604 14.4818 13.3177 14.6693 12.7969 14.6797H12.7812ZM5.03125 2.64844H3.20312C3.11979 2.64844 3.04427 2.66667 2.97656 2.70312C2.90885 2.73958 2.84896 2.78385 2.79688 2.83594C2.75521 2.88802 2.72396 2.94271 2.70312 3C2.68229 3.05729 2.67188 3.11719 2.67188 3.17969C2.67188 3.1901 2.67188 3.20052 2.67188 3.21094C2.67188 3.22135 2.67188 3.23177 2.67188 3.24219C2.72396 3.70052 2.80208 4.14844 2.90625 4.58594C3 5.03385 3.1224 5.46354 3.27344 5.875C3.42448 6.28646 3.59896 6.6901 3.79688 7.08594C3.99479 7.47135 4.20833 7.84635 4.4375 8.21094L4.42188 8.16406C4.85938 8.86198 5.36198 9.49479 5.92969 10.0625C6.4974 10.6302 7.11979 11.1276 7.79688 11.5547L7.82812 11.5859C8.18229 11.8151 8.55208 12.0234 8.9375 12.2109C9.3125 12.4089 9.70573 12.5807 10.1172 12.7266C10.5286 12.8724 10.9479 12.9974 11.375 13.1016C11.8125 13.2057 12.2552 13.2839 12.7031 13.3359H12.75C12.7604 13.3359 12.7682 13.3359 12.7734 13.3359C12.7786 13.3359 12.7812 13.3359 12.7812 13.3359C12.8646 13.3359 12.9375 13.3229 13 13.2969C13.0625 13.2708 13.1198 13.2318 13.1719 13.1797C13.224 13.1276 13.263 13.0703 13.2891 13.0078C13.3151 12.9453 13.3281 12.8776 13.3281 12.8047C13.3281 12.8047 13.3281 12.7995 13.3281 12.7891V10.9609C13.3281 10.8255 13.2839 10.7057 13.1953 10.6016C13.1068 10.4974 13 10.4349 12.875 10.4141C12.5312 10.3724 12.2031 10.3099 11.8906 10.2266C11.5781 10.1432 11.2708 10.0495 10.9688 9.94531L11.0312 9.96094C11 9.95052 10.9688 9.94271 10.9375 9.9375C10.9062 9.93229 10.875 9.92969 10.8438 9.92969C10.7708 9.92969 10.7005 9.94271 10.6328 9.96875C10.5651 9.99479 10.5104 10.0339 10.4688 10.0859L9.70312 10.8516C9.64062 10.9036 9.56771 10.9479 9.48438 10.9844C9.40104 11.0208 9.31771 11.0391 9.23438 11.0391C9.17188 11.0391 9.11198 11.0312 9.05469 11.0156C8.9974 11 8.94271 10.9766 8.89062 10.9453V10.9609C8.48438 10.7214 8.09896 10.4609 7.73438 10.1797C7.36979 9.89844 7.02604 9.59896 6.70312 9.28125C6.38021 8.96354 6.08333 8.6224 5.8125 8.25781C5.53125 7.90365 5.27604 7.52865 5.04688 7.13281L5.03125 7.08594C5 7.03385 4.97656 6.98177 4.96094 6.92969C4.94531 6.8776 4.9375 6.82031 4.9375 6.75781C4.9375 6.66406 4.95573 6.57552 4.99219 6.49219C5.02865 6.40885 5.07812 6.34115 5.14062 6.28906L5.90625 5.52344C5.94792 5.47135 5.98438 5.41146 6.01562 5.34375C6.04688 5.27604 6.0625 5.20573 6.0625 5.13281C6.0625 5.11198 6.0599 5.08594 6.05469 5.05469C6.04948 5.02344 6.04167 4.9974 6.03125 4.97656L6.01562 4.91406C5.92188 4.65365 5.83594 4.3776 5.75781 4.08594C5.67969 3.79427 5.61979 3.49219 5.57812 3.17969L5.5625 3.11719C5.54167 2.98177 5.48177 2.86979 5.38281 2.78125C5.28385 2.69271 5.16667 2.64844 5.03125 2.64844Z" fill="currentColor"/>
</svg>
