<svg width="20" height="20" viewBox="0 0 20 20" fill="none" xmlns="http://www.w3.org/2000/svg">
<g id="icon/map-location/outline">
<g id="Vector">
<path d="M10.0001 10.5839C10.84 10.5839 11.521 9.90296 11.521 9.06299C11.521 8.22303 10.84 7.5421 10.0001 7.5421C9.16011 7.5421 8.47918 8.22303 8.47918 9.06299C8.47918 9.90296 9.16011 10.5839 10.0001 10.5839Z" stroke="#FF5630" stroke-width="1.5"/>
<path fill-rule="evenodd" clip-rule="evenodd" d="M10.0001 2.39551C6.59246 2.39551 3.9165 5.25153 3.9165 8.64807C3.9165 9.58783 4.256 10.5535 4.63676 11.3724C5.03226 12.2231 5.54963 13.0759 6.05762 13.8316C7.07487 15.3449 8.13989 16.5938 8.36449 16.8537L8.36909 16.859C8.76996 17.3185 9.35798 17.6044 10.0001 17.6044C10.6422 17.6044 11.2302 17.3185 11.6311 16.859L11.6357 16.8537C11.8603 16.5938 12.9253 15.3449 13.9425 13.8316C14.4505 13.0759 14.9679 12.2231 15.3634 11.3724C15.7442 10.5535 16.0836 9.58783 16.0836 8.64807C16.0836 5.25153 13.4077 2.39551 10.0001 2.39551Z" stroke="#FF5630" stroke-width="1.5"/>
</g>
</g>
</svg>
