<svg width="36" height="36" viewBox="0 0 36 36" fill="none" xmlns="http://www.w3.org/2000/svg">
<rect width="36" height="36" rx="18" fill="#1877F2" fill-opacity="0.1"/>
<path opacity="0.5" d="M12.1665 22.7914C12.0387 22.7915 11.9139 22.7524 11.809 22.6794C11.7041 22.6064 11.6241 22.503 11.5798 22.3831C11.5355 22.2633 11.529 22.1327 11.5612 22.009C11.5934 21.8853 11.6627 21.7745 11.7598 21.6914L17.5931 16.6914C17.7064 16.5944 17.8507 16.541 17.9998 16.541C18.149 16.541 18.2932 16.5944 18.4065 16.6914L24.2398 21.6914C24.3369 21.7745 24.4063 21.8853 24.4385 22.009C24.4707 22.1327 24.4642 22.2633 24.4198 22.3831C24.3755 22.503 24.2955 22.6064 24.1906 22.6794C24.0857 22.7524 23.9609 22.7915 23.8331 22.7914H12.1665Z" fill="#1877F2"/>
<path fill-rule="evenodd" clip-rule="evenodd" d="M11.6915 19.2402C11.745 19.3026 11.8102 19.3538 11.8834 19.3909C11.9567 19.4281 12.0365 19.4504 12.1184 19.4567C12.2003 19.4629 12.2826 19.453 12.3606 19.4275C12.4386 19.4019 12.5109 19.3612 12.5732 19.3077L17.9999 14.6569L23.4265 19.3077C23.4883 19.3643 23.5609 19.4079 23.6398 19.4359C23.7188 19.4639 23.8026 19.4757 23.8862 19.4706C23.9699 19.4656 24.0516 19.4438 24.1267 19.4065C24.2017 19.3692 24.2685 19.3173 24.323 19.2537C24.3776 19.1901 24.4188 19.1161 24.4442 19.0363C24.4696 18.9565 24.4787 18.8723 24.4709 18.7889C24.4632 18.7055 24.4387 18.6245 24.399 18.5507C24.3593 18.4769 24.3052 18.4118 24.2399 18.3594L18.4065 13.3594C18.2933 13.2623 18.149 13.209 17.9999 13.209C17.8507 13.209 17.7065 13.2623 17.5932 13.3594L11.7599 18.3594C11.6342 18.4673 11.5565 18.6207 11.5438 18.7858C11.5312 18.951 11.5846 19.1144 11.6924 19.2402H11.6915Z" fill="#1877F2"/>
</svg>
