<svg width="36" height="36" viewBox="0 0 36 36" fill="none" xmlns="http://www.w3.org/2000/svg">
<rect width="36" height="36" rx="18" fill="#1877F2" fill-opacity="0.1"/>
<path opacity="0.32" d="M10.842 9.66699C10.2667 9.66699 9.80029 10.1334 9.80029 10.7087C9.80029 11.284 10.2667 11.7503 10.842 11.7503H11.5439C11.7417 11.7503 11.9121 11.8886 11.9525 12.0822C12.1384 12.9734 12.6649 15.4661 13.0873 17.167C13.6096 19.2699 14.083 20.7852 14.3813 21.6693C14.7496 21.4558 15.1773 21.3336 15.6336 21.3336C16.7052 21.3336 17.6192 22.0077 17.9749 22.955C18.5984 22.9828 19.3262 23.0003 20.1707 23.0003C20.8852 23.0003 21.5036 22.9878 22.0379 22.9671C22.3902 22.0134 23.3075 21.3336 24.3836 21.3336C24.8454 21.3336 25.278 21.4588 25.6492 21.6771C25.9437 20.9357 26.3396 19.6945 26.6753 17.792C26.9162 16.4271 27.0642 15.4026 27.1552 14.6588C27.267 13.7452 26.5541 13.0003 25.6336 13.0003H14.3836L13.8659 10.9294C13.6804 10.1875 13.0138 9.66699 12.249 9.66699H10.842Z" fill="#1877F2"/>
<path d="M22.6253 16.8287C22.6741 16.3406 22.2908 15.917 21.8002 15.917C21.3742 15.917 21.0175 16.2398 20.9751 16.6637L20.7243 19.172C20.6755 19.6601 21.0588 20.0837 21.5494 20.0837C21.9754 20.0837 22.3321 19.7609 22.3745 19.337L22.6253 16.8287Z" fill="#1877F2"/>
<path d="M18.6245 16.6637C18.5821 16.2398 18.2254 15.917 17.7994 15.917C17.3088 15.917 16.9255 16.3406 16.9743 16.8287L17.2251 19.337C17.2675 19.7609 17.6242 20.0837 18.0502 20.0837C18.5408 20.0837 18.9241 19.6601 18.8753 19.172L18.6245 16.6637Z" fill="#1877F2"/>
<path d="M21.8833 23.8337C21.8833 25.2144 23.0026 26.3337 24.3833 26.3337C25.764 26.3337 26.8833 25.2144 26.8833 23.8337C26.8833 22.453 25.764 21.3337 24.3833 21.3337C23.0026 21.3337 21.8833 22.453 21.8833 23.8337Z" fill="#1877F2"/>
<path d="M13.1333 23.8337C13.1333 25.2144 14.2526 26.3337 15.6333 26.3337C17.014 26.3337 18.1333 25.2144 18.1333 23.8337C18.1333 22.453 17.014 21.3337 15.6333 21.3337C14.2526 21.3337 13.1333 22.453 13.1333 23.8337Z" fill="#1877F2"/>
</svg>
