<svg width="36" height="36" viewBox="0 0 36 36" fill="none" xmlns="http://www.w3.org/2000/svg">
<rect width="36" height="36" rx="18" fill="#1877F2" fill-opacity="0.1"/>
<path fill-rule="evenodd" clip-rule="evenodd" d="M18 28C23.5228 28 28 23.5228 28 18C28 12.4772 23.5228 8 18 8C12.4772 8 8 12.4772 8 18C8 23.5228 12.4772 28 18 28ZM18.8377 20.4927C18.6361 20.646 18.3085 20.7227 17.855 20.7227C17.4098 20.7227 17.015 20.6575 16.6706 20.5272C16.5269 20.4695 16.394 20.4093 16.2721 20.3463C15.9864 20.1985 15.6172 20.1376 15.4098 20.3834C15.294 20.5208 15.2218 20.6841 15.2218 20.8722C15.2218 21.1942 15.4108 21.4626 15.7887 21.6773C16.1751 21.8844 16.6749 22.0185 17.288 22.0799V22.3099C17.288 22.5706 17.3552 22.7508 17.4896 22.8505C17.6324 22.9502 17.8591 23 18.1699 23C18.2129 23 18.2564 22.999 18.3 22.9971C18.6398 22.9822 18.8755 22.6782 18.8755 22.338V22.0224C19.5894 21.8997 20.1312 21.6582 20.5007 21.2978C20.8703 20.9297 21.0551 20.4812 21.0551 19.9521C21.0551 19.354 20.8493 18.8786 20.4378 18.5259C20.0346 18.1732 19.455 17.8895 18.6991 17.6748L17.9936 17.4793C17.708 17.395 17.4938 17.303 17.351 17.2032C17.2166 17.1036 17.1494 16.9733 17.1494 16.8122C17.1494 16.6128 17.2502 16.4518 17.4518 16.3292C17.6618 16.1988 17.9768 16.1336 18.3967 16.1336C18.7747 16.1336 19.1233 16.1796 19.4424 16.2716C19.5451 16.2981 19.6411 16.3264 19.7306 16.3566C20.0435 16.4622 20.438 16.4836 20.596 16.1936C20.6554 16.0845 20.6897 15.9644 20.6897 15.8346C20.6897 15.5432 20.5217 15.3093 20.1858 15.133C19.8498 14.949 19.413 14.8301 18.8755 14.7765V14.5234C18.8755 14.2627 18.8041 14.0825 18.6613 13.9828C18.5269 13.8832 18.3043 13.8333 17.9936 13.8333C17.9506 13.8333 17.9071 13.8343 17.8635 13.8362C17.5236 13.8512 17.288 14.1552 17.288 14.4953V14.8225C16.6329 14.9375 16.1289 15.1675 15.7761 15.5125C15.4234 15.8576 15.247 16.2908 15.247 16.8122C15.247 17.1189 15.3016 17.3835 15.4108 17.6058C15.5199 17.8282 15.6711 18.0199 15.8643 18.1809C16.0575 18.3419 16.2927 18.4799 16.5699 18.595C16.847 18.71 17.1578 18.8173 17.5022 18.917L18.1951 19.124C18.5143 19.216 18.7537 19.3234 18.9133 19.446C19.0729 19.5688 19.1526 19.7297 19.1526 19.9291C19.1526 20.1515 19.0476 20.3393 18.8377 20.4927Z" fill="#1877F2"/>
</svg>
