<svg width="36" height="36" viewBox="0 0 36 36" fill="none" xmlns="http://www.w3.org/2000/svg">
<rect width="36" height="36" rx="18" fill="#1877F2" fill-opacity="0.1"/>
<path opacity="0.32" fill-rule="evenodd" clip-rule="evenodd" d="M25.4262 14.8561C24.2264 15.1579 22.8098 15.1779 21.5863 14.8042C21.069 14.6461 20.6657 14.2432 20.4911 13.7312C20.0562 12.456 19.9487 10.895 20.2684 9.69349C19.6066 9.67687 18.854 9.66699 18 9.66699C15.0965 9.66699 13.3662 9.78101 12.3857 9.88682C11.6593 9.9652 11.0992 10.4572 10.9632 11.1751C10.7515 12.2925 10.5 14.3814 10.5 18.0003C10.5 21.6193 10.7515 23.7082 10.9632 24.8256C11.0992 25.5435 11.6593 26.0355 12.3857 26.1138C13.3662 26.2196 15.0965 26.3337 18 26.3337C20.9035 26.3337 22.6338 26.2196 23.6143 26.1138C24.3407 26.0355 24.9008 25.5435 25.0368 24.8256C25.2485 23.7082 25.5 21.6193 25.5 18.0003C25.5 16.7874 25.4717 15.7463 25.4262 14.8561ZM14.6667 18.8337C14.2064 18.8337 13.8333 18.4606 13.8333 18.0003C13.8333 17.5401 14.2064 17.167 14.6667 17.167H18C18.4602 17.167 18.8333 17.5401 18.8333 18.0003C18.8333 18.4606 18.4602 18.8337 18 18.8337H14.6667ZM14.6667 22.5837C14.2064 22.5837 13.8333 22.2106 13.8333 21.7503C13.8333 21.2901 14.2064 20.917 14.6667 20.917H20.5C20.9602 20.917 21.3333 21.2901 21.3333 21.7503C21.3333 22.2106 20.9602 22.5837 20.5 22.5837H14.6667Z" fill="#1877F2"/>
<path d="M13.8335 21.7502C13.8335 22.2105 14.2066 22.5836 14.6668 22.5836H20.5002C20.9604 22.5836 21.3335 22.2105 21.3335 21.7502C21.3335 21.29 20.9604 20.9169 20.5002 20.9169H14.6668C14.2066 20.9169 13.8335 21.29 13.8335 21.7502Z" fill="#1877F2"/>
<path d="M13.8335 18.0002C13.8335 18.4605 14.2066 18.8336 14.6668 18.8336H18.0002C18.4604 18.8336 18.8335 18.4605 18.8335 18.0002C18.8335 17.54 18.4604 17.1669 18.0002 17.1669H14.6668C14.2066 17.1669 13.8335 17.54 13.8335 18.0002Z" fill="#1877F2"/>
<path d="M25.4264 14.856C24.2266 15.1578 22.81 15.1779 21.5865 14.8041C21.0692 14.646 20.6658 14.2431 20.4912 13.7312C20.0563 12.4559 19.9489 10.8949 20.2685 9.69336C20.2685 9.69336 21.2886 10.0835 23.1636 11.9585C25.0386 13.8335 25.4264 14.856 25.4264 14.856Z" fill="#1877F2"/>
</svg>
