<svg width="36" height="36" viewBox="0 0 36 36" fill="none" xmlns="http://www.w3.org/2000/svg">
<rect width="36" height="36" rx="18" fill="#1877F2" fill-opacity="0.1"/>
<path d="M10.1875 24.875C9.93886 24.875 9.7004 24.9738 9.52459 25.1496C9.34877 25.3254 9.25 25.5639 9.25 25.8125C9.25 26.0611 9.34877 26.2996 9.52459 26.4754C9.7004 26.6512 9.93886 26.75 10.1875 26.75H25.8125C26.0611 26.75 26.2996 26.6512 26.4754 26.4754C26.6512 26.2996 26.75 26.0611 26.75 25.8125C26.75 25.5639 26.6512 25.3254 26.4754 25.1496C26.2996 24.9738 26.0611 24.875 25.8125 24.875H10.1875Z" fill="#1877F2"/>
<path opacity="0.32" d="M18.3775 13.1875C18.4838 13.025 18.605 12.8538 18.74 12.6775L18.76 12.65C19.0917 12.2102 19.4734 11.8104 19.8975 11.4588C20.3888 11.0588 20.9838 10.7163 21.6663 10.5713C21.8938 10.5238 22.1325 10.4988 22.3788 10.5C24.0675 10.5113 25.3438 11.6625 26.1263 12.63C26.225 12.7513 26.3138 12.8688 26.3963 12.9813L26.4313 13.03C26.515 13.145 26.5813 13.265 26.6313 13.3863L26.6413 13.41C26.9713 14.25 26.5225 15.1575 25.75 15.5413C25.6903 15.5713 25.6289 15.598 25.5663 15.6213L22.7763 16.6438L18.8938 22.2438C17.7213 23.935 15.0763 22.7788 15.5225 20.7688L15.9125 19.01L12.0313 20.1038C11.7061 20.1955 11.3642 20.2106 11.0322 20.148C10.7002 20.0855 10.3873 19.9468 10.1179 19.743C9.84844 19.5392 9.62988 19.2758 9.47931 18.9734C9.32874 18.671 9.25025 18.3379 9.25 18V14.45C9.25 12.9375 11.2975 12.4663 11.9575 13.8288L12.7138 15.39L17.0038 14.26C17.5438 14.1188 18.0238 13.725 18.3788 13.1875H18.3775ZM13.43 13.7163L13.555 13.8763L16.6863 13.0513C16.8513 13.0088 17.1 12.8538 17.335 12.4988C17.4597 12.3087 17.5906 12.1228 17.7275 11.9413L16.135 10.85C15.8027 10.6221 15.4092 10.5 15.0063 10.5C13.35 10.5 12.4138 12.4063 13.43 13.7163Z" fill="#1877F2"/>
</svg>
