<svg width="36" height="36" viewBox="0 0 36 36" fill="none" xmlns="http://www.w3.org/2000/svg">
<rect width="36" height="36" rx="18" fill="#1877F2" fill-opacity="0.1"/>
<g clip-path="url(#clip0_1596_22062)">
<g opacity="0.32">
<path d="M10.1747 27.1536C9.47759 27.1359 8.94956 26.7166 8.89258 26.0216C8.85844 25.6053 8.8335 25.0332 8.8335 24.25C8.8335 23.4668 8.85844 22.8947 8.89258 22.4784C8.94956 21.7834 9.47759 21.3641 10.1747 21.3464C10.4797 21.3387 10.861 21.3333 11.3335 21.3333C11.8059 21.3333 12.1873 21.3387 12.4923 21.3464C13.1894 21.3641 13.7174 21.7834 13.7744 22.4784C13.8085 22.8947 13.8335 23.4668 13.8335 24.25C13.8335 25.0332 13.8085 25.6053 13.7744 26.0216C13.7174 26.7166 13.1894 27.1359 12.4923 27.1536C12.1873 27.1613 11.8059 27.1667 11.3335 27.1667C10.861 27.1667 10.4797 27.1613 10.1747 27.1536Z" fill="#1877F2"/>
<path d="M23.7047 27.1494C22.8926 27.1173 22.3231 26.5464 22.2704 25.7353C22.2158 24.8942 22.1668 23.5281 22.1668 21.3333C22.1668 19.1386 22.2158 17.7725 22.2704 16.9314C22.3231 16.1203 22.8926 15.5493 23.7047 15.5173C23.9727 15.5067 24.291 15.5 24.6668 15.5C25.0427 15.5 25.3609 15.5067 25.6289 15.5173C26.4411 15.5493 27.0106 16.1203 27.0632 16.9314C27.1178 17.7725 27.1668 19.1386 27.1668 21.3333C27.1668 23.5281 27.1178 24.8942 27.0632 25.7353C27.0106 26.5464 26.4411 27.1173 25.6289 27.1494C25.3609 27.16 25.0427 27.1667 24.6668 27.1667C24.291 27.1667 23.9727 27.16 23.7047 27.1494Z" fill="#1877F2"/>
<path d="M16.9807 27.1526C16.2024 27.129 15.6352 26.6182 15.5792 25.8416C15.5353 25.2312 15.5002 24.328 15.5002 23C15.5002 21.672 15.5353 20.7687 15.5792 20.1584C15.6352 19.3818 16.2024 18.871 16.9807 18.8474C17.2603 18.8389 17.5971 18.8333 18.0002 18.8333C18.4032 18.8333 18.74 18.8389 19.0197 18.8474C19.7979 18.871 20.3652 19.3818 20.4211 20.1584C20.465 20.7687 20.5002 21.672 20.5002 23C20.5002 24.328 20.465 25.2312 20.4211 25.8416C20.3652 26.6182 19.7979 27.129 19.0197 27.1526C18.74 27.1611 18.4032 27.1667 18.0002 27.1667C17.5971 27.1667 17.2603 27.1611 16.9807 27.1526Z" fill="#1877F2"/>
</g>
<path d="M25.4671 13.0425C25.4257 13.8658 24.6425 14.1751 24.0352 13.6178C23.759 13.3644 23.4283 13.0525 23.035 12.6694C22.1465 13.4779 20.7685 14.7385 19.1256 16.264C18.6942 16.6647 17.9935 16.6199 17.6166 16.1676L17.6163 16.1672C16.8766 15.2823 16.1315 14.4009 15.3603 13.5432C14.4592 14.2047 12.8418 15.4655 11.2367 17.0706C10.8299 17.4774 10.1704 17.4774 9.76359 17.0706C9.3568 16.6638 9.3568 16.0043 9.76359 15.5975C11.3383 14.0228 13.066 12.5457 14.919 11.3029L14.9218 11.301C14.9225 11.3005 14.9223 11.3007 14.9223 11.3007C15.3355 11.0252 15.8856 11.0797 16.2367 11.4308C17.0434 12.2375 17.7722 13.1247 18.51 13.9942C19.7642 12.8342 20.8208 11.8677 21.5618 11.1932C21.2255 10.8462 20.947 10.5504 20.7168 10.2995C20.1593 9.69197 20.4688 8.90864 21.2923 8.8672C22.343 8.81432 23.4214 8.78321 24.4594 8.97726C24.9267 9.06464 25.2696 9.40751 25.3569 9.87489C25.551 10.913 25.52 11.9916 25.4671 13.0425Z" fill="#1877F2"/>
</g>
<defs>
<clipPath id="clip0_1596_22062">
<rect width="20" height="20" fill="white" transform="translate(8 8)"/>
</clipPath>
</defs>
</svg>
