<svg width="24" height="24" viewBox="0 0 24 24" fill="none" xmlns="http://www.w3.org/2000/svg">
<path d="M12.9375 2.00391H11.0391C10.5859 2.00391 10.1953 2.16797 9.86719 2.49609C9.53906 2.82422 9.375 3.22266 9.375 3.69141V4.76953C9.35938 4.83203 9.33203 4.89062 9.29297 4.94531C9.25391 5 9.21094 5.04297 9.16406 5.07422H9.14062C9.125 5.08984 9.09766 5.10156 9.05859 5.10938C9.01953 5.11719 8.98438 5.12109 8.95312 5.12109C8.90625 5.12109 8.86719 5.11719 8.83594 5.10938C8.80469 5.10156 8.77344 5.08984 8.74219 5.07422L7.99219 4.25391C7.85156 4.11328 7.67969 3.99609 7.47656 3.90234C7.27344 3.80859 7.05469 3.76172 6.82031 3.76172C6.58594 3.76172 6.36719 3.80469 6.16406 3.89062C5.96094 3.97656 5.78906 4.09766 5.64844 4.25391H5.625L4.26562 5.61328C4.10938 5.75391 3.98438 5.92578 3.89062 6.12891C3.79688 6.33203 3.75 6.55078 3.75 6.78516C3.75 7.01953 3.79688 7.24219 3.89062 7.45312C3.98438 7.66406 4.10938 7.84766 4.26562 8.00391L4.99219 8.75391C5.00781 8.76953 5.02344 8.79297 5.03906 8.82422C5.05469 8.85547 5.0625 8.88672 5.0625 8.91797C5.0625 8.96484 5.05469 9.00391 5.03906 9.03516C5.02344 9.06641 5.00781 9.08984 4.99219 9.10547C4.96094 9.18359 4.92188 9.24609 4.875 9.29297C4.82812 9.33984 4.77344 9.36328 4.71094 9.36328H3.67969C3.21094 9.37891 2.8125 9.55078 2.48438 9.87891C2.15625 10.207 1.99219 10.6055 1.99219 11.0742V12.9492C1.99219 13.418 2.15625 13.8164 2.48438 14.1445C2.8125 14.4727 3.21094 14.6367 3.67969 14.6367H4.78125C4.84375 14.6367 4.89844 14.6562 4.94531 14.6953C4.99219 14.7344 5.03125 14.7852 5.0625 14.8477C5.07812 14.8789 5.08984 14.9141 5.09766 14.9531C5.10547 14.9922 5.10938 15.0273 5.10938 15.0586C5.10938 15.0898 5.10547 15.125 5.09766 15.1641C5.08984 15.2031 5.07812 15.2383 5.0625 15.2695L4.26562 15.9961C4.10938 16.1523 3.98828 16.332 3.90234 16.5352C3.81641 16.7383 3.77344 16.957 3.77344 17.1914C3.77344 17.4258 3.81641 17.6406 3.90234 17.8359C3.98828 18.0312 4.10156 18.207 4.24219 18.3633H4.26562L5.60156 19.7461C5.75781 19.9023 5.93359 20.0234 6.12891 20.1094C6.32422 20.1953 6.53906 20.2383 6.77344 20.2383C6.77344 20.2383 6.77734 20.2383 6.78516 20.2383C6.79297 20.2383 6.79688 20.2383 6.79688 20.2383C7.03125 20.2383 7.25 20.1953 7.45312 20.1094C7.65625 20.0234 7.83594 19.9023 7.99219 19.7461L8.74219 18.9961C8.77344 18.9805 8.80469 18.9688 8.83594 18.9609C8.86719 18.9531 8.89844 18.9492 8.92969 18.9492C8.96094 18.9492 8.99219 18.9531 9.02344 18.9609C9.05469 18.9688 9.08594 18.9805 9.11719 18.9961C9.17969 19.0273 9.23828 19.0703 9.29297 19.125C9.34766 19.1797 9.375 19.2383 9.375 19.3008V20.332C9.375 20.7852 9.53906 21.1758 9.86719 21.5039C10.1953 21.832 10.5938 21.9961 11.0625 21.9961H13.0078C13.4609 21.9961 13.8516 21.832 14.1797 21.5039C14.5078 21.1758 14.6719 20.7852 14.6719 20.332V19.2305C14.6875 19.168 14.7148 19.1094 14.7539 19.0547C14.793 19 14.8438 18.9648 14.9062 18.9492C14.9375 18.9336 14.9688 18.918 15 18.9023C15.0312 18.8867 15.0625 18.8789 15.0938 18.8789C15.1406 18.8789 15.1797 18.8867 15.2109 18.9023C15.2422 18.918 15.2734 18.9336 15.3047 18.9492L16.0078 19.7461C16.1484 19.9023 16.3203 20.0234 16.5234 20.1094C16.7266 20.1953 16.9453 20.2383 17.1797 20.2383C17.4141 20.2383 17.6328 20.1953 17.8359 20.1094C18.0391 20.0234 18.2109 19.9023 18.3516 19.7461H18.375L19.7344 18.4102C19.8906 18.2539 20.0156 18.0742 20.1094 17.8711C20.2031 17.668 20.25 17.4492 20.25 17.2148C20.25 17.2148 20.25 17.2109 20.25 17.2031C20.25 17.1953 20.25 17.1836 20.25 17.168C20.25 16.9492 20.2031 16.7383 20.1094 16.5352C20.0156 16.332 19.8906 16.1523 19.7344 15.9961L19.0078 15.2695C18.9922 15.2383 18.9766 15.207 18.9609 15.1758C18.9453 15.1445 18.9375 15.1133 18.9375 15.082C18.9375 15.0508 18.9453 15.0195 18.9609 14.9883C18.9766 14.957 18.9922 14.9258 19.0078 14.8945C19.0391 14.8164 19.0781 14.7539 19.125 14.707C19.1719 14.6602 19.2266 14.6367 19.2891 14.6367H20.3906C20.8438 14.6055 21.2266 14.4297 21.5391 14.1094C21.8516 13.7891 22.0078 13.4023 22.0078 12.9492V11.0039C22.0078 10.5352 21.8438 10.1367 21.5156 9.80859C21.1875 9.48047 20.7891 9.31641 20.3203 9.31641H19.2188C19.125 9.30078 19.0469 9.25391 18.9844 9.17578C18.9219 9.09766 18.8906 9.01172 18.8906 8.91797C18.8906 8.88672 18.8945 8.85547 18.9023 8.82422C18.9102 8.79297 18.9219 8.76172 18.9375 8.73047L19.7109 7.95703C19.8672 7.81641 19.9883 7.64453 20.0742 7.44141C20.1602 7.23828 20.2031 7.01953 20.2031 6.78516C20.2031 6.55078 20.1602 6.33203 20.0742 6.12891C19.9883 5.92578 19.8672 5.75391 19.7109 5.61328V5.58984L18.3984 4.25391C18.2422 4.11328 18.0664 3.99609 17.8711 3.90234C17.6758 3.80859 17.4609 3.76172 17.2266 3.76172C16.9922 3.76172 16.7734 3.80859 16.5703 3.90234C16.3672 3.99609 16.1875 4.11328 16.0312 4.25391L15.2578 5.00391C15.2266 5.01953 15.1953 5.03125 15.1641 5.03906C15.1328 5.04688 15.1016 5.05078 15.0703 5.05078C15.0391 5.05078 15.0078 5.04688 14.9766 5.03906C14.9453 5.03125 14.9141 5.01953 14.8828 5.00391C14.8203 4.97266 14.7617 4.93359 14.707 4.88672C14.6523 4.83984 14.625 4.77734 14.625 4.69922V3.62109C14.6094 3.16797 14.4375 2.78516 14.1094 2.47266C13.7812 2.16016 13.3906 2.00391 12.9375 2.00391ZM11.3672 3.99609H12.6328V4.76953C12.6328 5.25391 12.7695 5.6875 13.043 6.07031C13.3164 6.45312 13.6641 6.73047 14.0859 6.90234C14.2266 6.96484 14.3789 7.01562 14.543 7.05469C14.707 7.09375 14.875 7.11328 15.0469 7.11328C15.3594 7.11328 15.6562 7.05469 15.9375 6.9375C16.2188 6.82031 16.4688 6.65234 16.6875 6.43359L17.2266 5.89453L18.0938 6.78516L17.5547 7.32422C17.3516 7.54297 17.1914 7.79297 17.0742 8.07422C16.957 8.35547 16.8984 8.66016 16.8984 8.98828C16.8984 9.62891 17.125 10.1797 17.5781 10.6406C18.0312 11.1016 18.5781 11.3398 19.2188 11.3555H19.9922V12.6445H19.2188C18.75 12.6445 18.3203 12.7773 17.9297 13.043C17.5391 13.3086 17.2578 13.6523 17.0859 14.0742V14.0977C17.0234 14.2383 16.9766 14.3867 16.9453 14.543C16.9141 14.6992 16.8984 14.8633 16.8984 15.0352C16.8984 15.3633 16.957 15.668 17.0742 15.9492C17.1914 16.2305 17.3516 16.4727 17.5547 16.6758L18.0938 17.2148L17.2266 18.1055L16.6641 17.5664C16.4609 17.3633 16.2188 17.207 15.9375 17.0977C15.6562 16.9883 15.3594 16.9336 15.0469 16.9336C14.4062 16.9336 13.8555 17.1562 13.3945 17.6016C12.9336 18.0469 12.6953 18.5898 12.6797 19.2305V20.0039H11.3672V19.2305C11.3672 18.7461 11.2305 18.3125 10.957 17.9297C10.6836 17.5469 10.3359 17.2695 9.91406 17.0977C9.77344 17.0352 9.62109 16.9844 9.45703 16.9453C9.29297 16.9062 9.125 16.8867 8.95312 16.8867C8.64062 16.8867 8.34375 16.9492 8.0625 17.0742C7.78125 17.1992 7.53125 17.3633 7.3125 17.5664L6.77344 18.1055L5.90625 17.2148L6.44531 16.6758C6.63281 16.457 6.78125 16.2109 6.89062 15.9375C7 15.6641 7.05469 15.3711 7.05469 15.0586C7.05469 14.418 6.83203 13.8672 6.38672 13.4062C5.94141 12.9453 5.40625 12.6992 4.78125 12.668H4.00781V11.4023H4.78125C5.25 11.4023 5.67969 11.2695 6.07031 11.0039C6.46094 10.7383 6.74219 10.3945 6.91406 9.97266V9.94922C6.97656 9.80859 7.02344 9.66016 7.05469 9.50391C7.08594 9.34766 7.10156 9.18359 7.10156 9.01172C7.10156 8.68359 7.04297 8.37891 6.92578 8.09766C6.80859 7.81641 6.64844 7.57422 6.44531 7.37109L5.90625 6.83203L6.77344 5.94141L7.33594 6.48047C7.53906 6.68359 7.78125 6.83984 8.0625 6.94922C8.34375 7.05859 8.64062 7.11328 8.95312 7.11328C9.59375 7.11328 10.1445 6.89062 10.6055 6.44531C11.0664 6 11.3047 5.45703 11.3203 4.81641L11.3672 3.99609ZM12 8.49609C11.0312 8.49609 10.207 8.83984 9.52734 9.52734C8.84766 10.2148 8.50781 11.043 8.50781 12.0117C8.50781 12.9805 8.84766 13.8047 9.52734 14.4844C10.207 15.1641 11.0312 15.5039 12 15.5039C12.9688 15.5039 13.793 15.1641 14.4727 14.4844C15.1523 13.8047 15.4922 12.9805 15.4922 12.0117C15.4922 11.043 15.1523 10.2148 14.4727 9.52734C13.793 8.83984 12.9688 8.49609 12 8.49609ZM12 13.5117C11.5781 13.5117 11.2227 13.3633 10.9336 13.0664C10.6445 12.7695 10.5 12.418 10.5 12.0117C10.5 11.5898 10.6445 11.2344 10.9336 10.9453C11.2227 10.6562 11.5781 10.5117 12 10.5117C12.4219 10.5117 12.7773 10.6562 13.0664 10.9453C13.3555 11.2344 13.5 11.5898 13.5 12.0117C13.5 12.418 13.3555 12.7695 13.0664 13.0664C12.7773 13.3633 12.4219 13.5117 12 13.5117Z" fill="#637381"/>
</svg>
