<svg width="20" height="20" viewBox="0 0 20 20" fill="none" xmlns="http://www.w3.org/2000/svg">
<g id="icons/duotone/ic-solar:bill-list-bold-duotone">
<path id="secondary-shape" opacity="0.5" d="M6.0375 1.66699H13.9625C14.9283 1.66699 15.4108 1.66699 15.8008 1.80283C16.1685 1.93315 16.5013 2.1465 16.7731 2.42631C17.045 2.70612 17.2487 3.04484 17.3683 3.41616C17.5 3.81783 17.5 4.31449 17.5 5.30866V16.9787C17.5 17.6937 16.6792 18.0737 16.16 17.5987C16.0143 17.4641 15.8233 17.3893 15.625 17.3893C15.4267 17.3893 15.2357 17.4641 15.09 17.5987L14.6875 17.967C14.4323 18.203 14.0976 18.334 13.75 18.334C13.4024 18.334 13.0677 18.203 12.8125 17.967C12.5573 17.731 12.2226 17.6 11.875 17.6C11.5274 17.6 11.1927 17.731 10.9375 17.967C10.6823 18.203 10.3476 18.334 10 18.334C9.65245 18.334 9.31767 18.203 9.0625 17.967C8.80733 17.731 8.47255 17.6 8.125 17.6C7.77745 17.6 7.44267 17.731 7.1875 17.967C6.93233 18.203 6.59755 18.334 6.25 18.334C5.90245 18.334 5.56767 18.203 5.3125 17.967L4.91 17.5987C4.76434 17.4641 4.57331 17.3893 4.375 17.3893C4.17668 17.3893 3.98566 17.4641 3.84 17.5987C3.32083 18.0737 2.5 17.6937 2.5 16.9787V5.30866C2.5 4.31449 2.5 3.81699 2.63167 3.41699C2.88167 2.65616 3.46083 2.05949 4.19917 1.80283C4.58917 1.66699 5.07167 1.66699 6.0375 1.66699Z" fill="#1877F2"/>
<path id="primary-shape" d="M5.8335 5.625C5.66774 5.625 5.50876 5.69085 5.39155 5.80806C5.27434 5.92527 5.2085 6.08424 5.2085 6.25C5.2085 6.41576 5.27434 6.57473 5.39155 6.69194C5.50876 6.80915 5.66774 6.875 5.8335 6.875H6.25016C6.41592 6.875 6.57489 6.80915 6.6921 6.69194C6.80931 6.57473 6.87516 6.41576 6.87516 6.25C6.87516 6.08424 6.80931 5.92527 6.6921 5.80806C6.57489 5.69085 6.41592 5.625 6.25016 5.625H5.8335ZM8.75016 5.625C8.5844 5.625 8.42543 5.69085 8.30822 5.80806C8.19101 5.92527 8.12516 6.08424 8.12516 6.25C8.12516 6.41576 8.19101 6.57473 8.30822 6.69194C8.42543 6.80915 8.5844 6.875 8.75016 6.875H14.1668C14.3326 6.875 14.4916 6.80915 14.6088 6.69194C14.726 6.57473 14.7918 6.41576 14.7918 6.25C14.7918 6.08424 14.726 5.92527 14.6088 5.80806C14.4916 5.69085 14.3326 5.625 14.1668 5.625H8.75016ZM5.8335 8.54167C5.66774 8.54167 5.50876 8.60751 5.39155 8.72473C5.27434 8.84194 5.2085 9.00091 5.2085 9.16667C5.2085 9.33243 5.27434 9.4914 5.39155 9.60861C5.50876 9.72582 5.66774 9.79167 5.8335 9.79167H6.25016C6.41592 9.79167 6.57489 9.72582 6.6921 9.60861C6.80931 9.4914 6.87516 9.33243 6.87516 9.16667C6.87516 9.00091 6.80931 8.84194 6.6921 8.72473C6.57489 8.60751 6.41592 8.54167 6.25016 8.54167H5.8335ZM8.75016 8.54167C8.5844 8.54167 8.42543 8.60751 8.30822 8.72473C8.19101 8.84194 8.12516 9.00091 8.12516 9.16667C8.12516 9.33243 8.19101 9.4914 8.30822 9.60861C8.42543 9.72582 8.5844 9.79167 8.75016 9.79167H14.1668C14.3326 9.79167 14.4916 9.72582 14.6088 9.60861C14.726 9.4914 14.7918 9.33243 14.7918 9.16667C14.7918 9.00091 14.726 8.84194 14.6088 8.72473C14.4916 8.60751 14.3326 8.54167 14.1668 8.54167H8.75016ZM5.8335 11.4583C5.66774 11.4583 5.50876 11.5242 5.39155 11.6414C5.27434 11.7586 5.2085 11.9176 5.2085 12.0833C5.2085 12.2491 5.27434 12.4081 5.39155 12.5253C5.50876 12.6425 5.66774 12.7083 5.8335 12.7083H6.25016C6.41592 12.7083 6.57489 12.6425 6.6921 12.5253C6.80931 12.4081 6.87516 12.2491 6.87516 12.0833C6.87516 11.9176 6.80931 11.7586 6.6921 11.6414C6.57489 11.5242 6.41592 11.4583 6.25016 11.4583H5.8335ZM8.75016 11.4583C8.5844 11.4583 8.42543 11.5242 8.30822 11.6414C8.19101 11.7586 8.12516 11.9176 8.12516 12.0833C8.12516 12.2491 8.19101 12.4081 8.30822 12.5253C8.42543 12.6425 8.5844 12.7083 8.75016 12.7083H14.1668C14.3326 12.7083 14.4916 12.6425 14.6088 12.5253C14.726 12.4081 14.7918 12.2491 14.7918 12.0833C14.7918 11.9176 14.726 11.7586 14.6088 11.6414C14.4916 11.5242 14.3326 11.4583 14.1668 11.4583H8.75016Z" fill="#1877F2"/>
</g>
</svg>
