<svg width="24" height="24" viewBox="0 0 24 24" fill="none" xmlns="http://www.w3.org/2000/svg">
<path d="M0.609375 12.3516C0.609375 12.3516 0.609375 12.3555 0.609375 12.3633C0.609375 12.3711 0.601562 12.375 0.585938 12.375C0.539062 12.3906 0.488281 12.418 0.433594 12.457C0.378906 12.4961 0.328125 12.5391 0.28125 12.5859C0.265625 12.6016 0.25 12.6211 0.234375 12.6445C0.21875 12.668 0.210938 12.6875 0.210938 12.7031C0.179688 12.7344 0.152344 12.7656 0.128906 12.7969C0.105469 12.8281 0.0859375 12.8672 0.0703125 12.9141C0.0703125 12.9453 0.0664062 12.9805 0.0585938 13.0195C0.0507812 13.0586 0.0390625 13.0938 0.0234375 13.125C0.0234375 13.1562 0.0195312 13.1836 0.0117188 13.207C0.00390625 13.2305 0 13.25 0 13.2656V18.6094C0 18.8906 0.0976563 19.1289 0.292969 19.3242C0.488281 19.5195 0.726562 19.6172 1.00781 19.6172C1.27344 19.6172 1.50391 19.5195 1.69922 19.3242C1.89453 19.1289 1.99219 18.8906 1.99219 18.6094V15.5859L4.45312 17.8828C5.26562 18.6953 6.21484 19.3359 7.30078 19.8047C8.38672 20.2734 9.54688 20.5078 10.7812 20.5078C11.7656 20.5078 12.6953 20.3594 13.5703 20.0625C14.4609 19.7656 15.2734 19.3555 16.0078 18.832C16.7422 18.3086 17.3906 17.6797 17.9531 16.9453C18.5 16.2266 18.9297 15.4297 19.2422 14.5547L19.2656 14.5078C19.2969 14.4453 19.3164 14.3867 19.3242 14.332C19.332 14.2773 19.3359 14.2188 19.3359 14.1562C19.3359 13.875 19.2383 13.6367 19.043 13.4414C18.8477 13.2461 18.6094 13.1484 18.3281 13.1484C18.1094 13.1484 17.9141 13.2109 17.7422 13.3359C17.5703 13.4609 17.4531 13.625 17.3906 13.8281C17.1406 14.5156 16.7969 15.1484 16.3594 15.7266C15.9219 16.2891 15.418 16.7773 14.8477 17.1914C14.2773 17.6055 13.6484 17.9297 12.9609 18.1641C12.2734 18.3828 11.5469 18.4922 10.7812 18.4922C9.8125 18.4922 8.90234 18.3086 8.05078 17.9414C7.19922 17.5742 6.46094 17.0781 5.83594 16.4531L3.51562 14.2734H6.32812C6.60938 14.2734 6.84766 14.1758 7.04297 13.9805C7.23828 13.7852 7.33594 13.5469 7.33594 13.2656C7.33594 13 7.23828 12.7695 7.04297 12.5742C6.84766 12.3789 6.60938 12.2812 6.32812 12.2812H1.00781C0.929688 12.2812 0.859375 12.2891 0.796875 12.3047C0.734375 12.3203 0.671875 12.3359 0.609375 12.3516ZM21.5391 9.86719C21.5391 9.94531 21.5234 10.0234 21.4922 10.1016C21.4609 10.1797 21.4141 10.2422 21.3516 10.2891C21.3516 10.3203 21.3438 10.3438 21.3281 10.3594C21.3125 10.375 21.2969 10.3906 21.2812 10.4062C21.25 10.4375 21.2148 10.4648 21.1758 10.4883C21.1367 10.5117 21.1016 10.5391 21.0703 10.5703C21.0547 10.5703 21.0391 10.5781 21.0234 10.5938C21.0078 10.6094 20.9844 10.625 20.9531 10.6406C20.9375 10.6406 20.918 10.6445 20.8945 10.6523C20.8711 10.6602 20.8516 10.6641 20.8359 10.6641H20.8125C20.7812 10.6797 20.7461 10.6914 20.707 10.6992C20.668 10.707 20.625 10.7109 20.5781 10.7109H20.5547H15.2344C14.9531 10.7109 14.7148 10.6133 14.5195 10.418C14.3242 10.2227 14.2266 9.99219 14.2266 9.72656C14.2266 9.44531 14.3242 9.20703 14.5195 9.01172C14.7148 8.81641 14.9531 8.71875 15.2344 8.71875H18.0469L15.7266 6.5625C15.1016 5.92188 14.3633 5.41797 13.5117 5.05078C12.6602 4.68359 11.7578 4.5 10.8047 4.5C10.7891 4.5 10.7812 4.5 10.7812 4.5C10.7812 4.5 10.7773 4.5 10.7695 4.5C10.7617 4.5 10.7578 4.5 10.7578 4.5C9.78906 4.5 8.88281 4.68359 8.03906 5.05078C7.19531 5.41797 6.46094 5.91406 5.83594 6.53906C5.47656 6.89844 5.15625 7.29688 4.875 7.73438C4.59375 8.17188 4.36719 8.63281 4.19531 9.11719L4.17188 9.16406C4.10938 9.36719 3.99219 9.53125 3.82031 9.65625C3.64844 9.78125 3.45312 9.84375 3.23438 9.84375C2.95312 9.84375 2.71484 9.74609 2.51953 9.55078C2.32422 9.35547 2.22656 9.125 2.22656 8.85938C2.22656 8.79688 2.23047 8.73438 2.23828 8.67188C2.24609 8.60938 2.26562 8.54688 2.29688 8.48438V8.50781C2.53125 7.83594 2.82812 7.22266 3.1875 6.66797C3.54688 6.11328 3.95312 5.60156 4.40625 5.13281C5.21875 4.32031 6.16797 3.67969 7.25391 3.21094C8.33984 2.74219 9.50781 2.50781 10.7578 2.50781C10.7578 2.50781 10.7617 2.50781 10.7695 2.50781C10.7773 2.50781 10.7812 2.50781 10.7812 2.50781C10.7812 2.50781 10.7852 2.50781 10.793 2.50781C10.8008 2.50781 10.8047 2.50781 10.8047 2.50781C12.0391 2.50781 13.1992 2.74219 14.2852 3.21094C15.3711 3.67969 16.3125 4.3125 17.1094 5.10938L19.5703 7.40625V4.38281C19.5703 4.10156 19.668 3.86328 19.8633 3.66797C20.0586 3.47266 20.2891 3.375 20.5547 3.375C20.8359 3.375 21.0742 3.47266 21.2695 3.66797C21.4648 3.86328 21.5625 4.10156 21.5625 4.38281V9.72656C21.5625 9.74219 21.5586 9.76562 21.5508 9.79688C21.543 9.82812 21.5391 9.85156 21.5391 9.86719Z" fill="#637381"/>
</svg>
