<svg width="84" height="69" viewBox="0 0 84 69" fill="none" xmlns="http://www.w3.org/2000/svg">
<path d="M51.0527 37.752C51.0527 40.2715 50.1738 42.4102 48.416 44.168C46.6582 45.9258 44.5195 46.8047 42 46.8047C39.4805 46.8047 37.3418 45.9258 35.584 44.168C33.8262 42.4102 32.9473 40.2715 32.9473 37.752C32.9473 35.2324 33.8262 33.0791 35.584 31.292C37.3418 29.5049 39.4805 28.6113 42 28.6113C44.5195 28.6699 46.6582 29.5781 48.416 31.3359C50.1738 33.0938 51.0527 35.2324 51.0527 37.752ZM83.2207 21.5801V58.1426C83.1621 60.9551 82.1221 63.3428 80.1006 65.3057C78.0791 67.2686 75.6621 68.25 72.8496 68.25C72.8496 68.25 72.835 68.25 72.8057 68.25C72.7764 68.25 72.7324 68.25 72.6738 68.25H11.3262C11.2676 68.25 11.2236 68.25 11.1943 68.25C11.165 68.25 11.1504 68.25 11.1504 68.25C8.33789 68.25 5.9209 67.2686 3.89941 65.3057C1.87793 63.3428 0.837891 60.9551 0.779297 58.1426V23.4258C0.779297 21.1406 1.54102 18.9873 3.06445 16.9658C4.58789 14.9443 6.75586 13.2012 9.56836 11.7363C9.86133 11.6191 10.1543 11.5312 10.4473 11.4727C10.7402 11.4141 11.0332 11.3848 11.3262 11.3848H22.9277L28.6406 2.50781C28.9922 1.98047 29.4316 1.55566 29.959 1.2334C30.4863 0.911133 31.1016 0.75 31.8047 0.75H52.1953C52.8984 0.75 53.5137 0.911133 54.041 1.2334C54.5684 1.55566 55.0078 1.98047 55.3594 2.50781L61.0723 11.3848H72.6738C72.7324 11.3848 72.7764 11.3848 72.8057 11.3848C72.835 11.3848 72.8496 11.3848 72.8496 11.3848C75.6621 11.3848 78.0791 12.3662 80.1006 14.3291C82.1221 16.292 83.1621 18.6797 83.2207 21.4922V21.5801ZM58.6113 37.752C58.6113 33.1816 56.9854 29.2705 53.7334 26.0186C50.4814 22.7666 46.5703 21.1406 42 21.1406C37.4297 21.1406 33.5186 22.7666 30.2666 26.0186C27.0146 29.2705 25.3887 33.1816 25.3887 37.752C25.3887 42.3223 27.0146 46.2334 30.2666 49.4854C33.5186 52.7373 37.4297 54.3633 42 54.3633C46.5703 54.3047 50.4814 52.6641 53.7334 49.4414C56.9854 46.2188 58.6113 42.3223 58.6113 37.752Z" fill="#C4CDD5"/>
</svg>
