<svg width="24" height="24" viewBox="0 0 24 24" fill="none" xmlns="http://www.w3.org/2000/svg">
<path d="M19.9922 5.98828H16.9922V5.00391C16.9922 4.17578 16.6992 3.46875 16.1133 2.88281C15.5273 2.29688 14.8203 2.00391 13.9922 2.00391H10.0078C9.17969 2.00391 8.47266 2.29688 7.88672 2.88281C7.30078 3.46875 7.00781 4.17578 7.00781 5.00391V5.98828H4.00781C3.72656 5.98828 3.48828 6.08594 3.29297 6.28125C3.09766 6.47656 3 6.71484 3 6.99609C3 7.27734 3.09766 7.51562 3.29297 7.71094C3.48828 7.90625 3.72656 8.00391 4.00781 8.00391H4.99219V19.2539C4.99219 20.0039 5.25781 20.6484 5.78906 21.1875C6.32031 21.7266 6.96094 21.9961 7.71094 21.9961H16.2891C17.0391 21.9961 17.6797 21.7266 18.2109 21.1875C18.7422 20.6484 19.0078 20.0039 19.0078 19.2539V8.00391H19.9922C20.2734 8.00391 20.5117 7.90625 20.707 7.71094C20.9023 7.51562 21 7.27734 21 6.99609C21 6.71484 20.9023 6.47656 20.707 6.28125C20.5117 6.08594 20.2734 5.98828 19.9922 5.98828ZM9 5.00391C9 4.72266 9.09766 4.48438 9.29297 4.28906C9.48828 4.09375 9.72656 3.99609 10.0078 3.99609H13.9922C14.2734 3.99609 14.5117 4.09375 14.707 4.28906C14.9023 4.48438 15 4.72266 15 5.00391V5.98828H9V5.00391ZM16.9922 19.2539C16.9922 19.457 16.9258 19.6289 16.793 19.7695C16.6602 19.9102 16.4922 19.9883 16.2891 20.0039H7.71094C7.50781 19.9883 7.33984 19.9102 7.20703 19.7695C7.07422 19.6289 7.00781 19.457 7.00781 19.2539V8.00391H16.9922V19.2539ZM10.9922 11.2852V16.6992C10.9922 16.9805 10.8945 17.2188 10.6992 17.4141C10.5039 17.6094 10.2734 17.707 10.0078 17.707C9.72656 17.707 9.48828 17.6094 9.29297 17.4141C9.09766 17.2188 9 16.9805 9 16.6992V11.2852C9 11.0195 9.09766 10.7891 9.29297 10.5938C9.48828 10.3984 9.72656 10.3008 10.0078 10.3008C10.2734 10.3008 10.5039 10.3984 10.6992 10.5938C10.8945 10.7891 10.9922 11.0195 10.9922 11.2852ZM15 11.2852V16.6992C15 16.9805 14.9023 17.2188 14.707 17.4141C14.5117 17.6094 14.2734 17.707 13.9922 17.707C13.7266 17.707 13.4961 17.6094 13.3008 17.4141C13.1055 17.2188 13.0078 16.9805 13.0078 16.6992V11.2852C13.0078 11.0195 13.1055 10.7891 13.3008 10.5938C13.4961 10.3984 13.7266 10.3008 13.9922 10.3008C14.2734 10.3008 14.5117 10.3984 14.707 10.5938C14.9023 10.7891 15 11.0195 15 11.2852Z" fill="#637381"/>
</svg>
