<svg width="25" height="25" viewBox="0 0 25 25" fill="none" xmlns="http://www.w3.org/2000/svg">
<path d="M20.4922 6.23828H17.4922V5.25391C17.4922 4.42578 17.1992 3.71875 16.6133 3.13281C16.0273 2.54688 15.3203 2.25391 14.4922 2.25391H10.5078C9.67969 2.25391 8.97266 2.54688 8.38672 3.13281C7.80078 3.71875 7.50781 4.42578 7.50781 5.25391V6.23828H4.50781C4.22656 6.23828 3.98828 6.33594 3.79297 6.53125C3.59766 6.72656 3.5 6.96484 3.5 7.24609C3.5 7.52734 3.59766 7.76562 3.79297 7.96094C3.98828 8.15625 4.22656 8.25391 4.50781 8.25391H5.49219V19.5039C5.49219 20.2539 5.75781 20.8984 6.28906 21.4375C6.82031 21.9766 7.46094 22.2461 8.21094 22.2461H16.7891C17.5391 22.2461 18.1797 21.9766 18.7109 21.4375C19.2422 20.8984 19.5078 20.2539 19.5078 19.5039V8.25391H20.4922C20.7734 8.25391 21.0117 8.15625 21.207 7.96094C21.4023 7.76562 21.5 7.52734 21.5 7.24609C21.5 6.96484 21.4023 6.72656 21.207 6.53125C21.0117 6.33594 20.7734 6.23828 20.4922 6.23828ZM9.5 5.25391C9.5 4.97266 9.59766 4.73438 9.79297 4.53906C9.98828 4.34375 10.2266 4.24609 10.5078 4.24609H14.4922C14.7734 4.24609 15.0117 4.34375 15.207 4.53906C15.4023 4.73438 15.5 4.97266 15.5 5.25391V6.23828H9.5V5.25391ZM17.4922 19.5039C17.4922 19.707 17.4258 19.8789 17.293 20.0195C17.1602 20.1602 16.9922 20.2383 16.7891 20.2539H8.21094C8.00781 20.2383 7.83984 20.1602 7.70703 20.0195C7.57422 19.8789 7.50781 19.707 7.50781 19.5039V8.25391H17.4922V19.5039ZM11.4922 11.5352V16.9492C11.4922 17.2305 11.3945 17.4688 11.1992 17.6641C11.0039 17.8594 10.7734 17.957 10.5078 17.957C10.2266 17.957 9.98828 17.8594 9.79297 17.6641C9.59766 17.4688 9.5 17.2305 9.5 16.9492V11.5352C9.5 11.2695 9.59766 11.0391 9.79297 10.8438C9.98828 10.6484 10.2266 10.5508 10.5078 10.5508C10.7734 10.5508 11.0039 10.6484 11.1992 10.8438C11.3945 11.0391 11.4922 11.2695 11.4922 11.5352ZM15.5 11.5352V16.9492C15.5 17.2305 15.4023 17.4688 15.207 17.6641C15.0117 17.8594 14.7734 17.957 14.4922 17.957C14.2266 17.957 13.9961 17.8594 13.8008 17.6641C13.6055 17.4688 13.5078 17.2305 13.5078 16.9492V11.5352C13.5078 11.2695 13.6055 11.0391 13.8008 10.8438C13.9961 10.6484 14.2266 10.5508 14.4922 10.5508C14.7734 10.5508 15.0117 10.6484 15.207 10.8438C15.4023 11.0391 15.5 11.2695 15.5 11.5352Z" fill="#637381"/>
</svg>
