<svg width="24" height="24" viewBox="0 0 24 24" fill="none" xmlns="http://www.w3.org/2000/svg">
<path fill-rule="evenodd" clip-rule="evenodd" d="M9.7471 3.28662C7.3047 3.28662 5.32474 5.26658 5.32474 7.70898C5.32474 10.1514 7.3047 12.1313 9.7471 12.1313C12.1895 12.1313 14.1695 10.1514 14.1695 7.70898C14.1695 5.26658 12.1895 3.28662 9.7471 3.28662Z" fill="#22C55E"/>
<path d="M15.9694 3.50118C15.423 3.50118 14.98 3.94414 14.98 4.49055C14.98 5.03696 15.423 5.47992 15.9694 5.47992C16.7109 5.47992 17.5548 6.23735 17.5548 7.49442C17.5548 8.75148 16.7109 9.50891 15.9694 9.50891C15.423 9.50891 14.98 9.95187 14.98 10.4983C14.98 11.0447 15.423 11.4876 15.9694 11.4876C18.0774 11.4876 19.5335 9.54887 19.5335 7.49442C19.5335 5.43997 18.0774 3.50118 15.9694 3.50118Z" fill="#22C55E"/>
<path d="M15.9694 12.9419C15.423 12.9419 14.98 13.3849 14.98 13.9313C14.98 14.4777 15.423 14.9206 15.9694 14.9206H17.3998C18.4334 14.9206 19.2713 15.7585 19.2713 16.7921C19.2713 17.0357 19.0738 17.2331 18.8302 17.2331H18.4726C17.9262 17.2331 17.4832 17.6761 17.4832 18.2225C17.4832 18.7689 17.9262 19.2119 18.4726 19.2119H18.8302C20.1666 19.2119 21.25 18.1285 21.25 16.7921C21.25 14.6657 19.5262 12.9419 17.3998 12.9419H15.9694Z" fill="#22C55E"/>
<path fill-rule="evenodd" clip-rule="evenodd" d="M7.17236 13.5856C4.72996 13.5856 2.75 15.5655 2.75 18.0079C2.75 19.5023 3.96146 20.7138 5.45586 20.7138H14.0383C15.5327 20.7138 16.7442 19.5023 16.7442 18.0079C16.7442 15.5655 14.7642 13.5856 12.3218 13.5856H7.17236Z" fill="#22C55E"/>
</svg>
