<svg width="24" height="24" viewBox="0 0 24 24" fill="none" xmlns="http://www.w3.org/2000/svg">
<path d="M19.0078 21.9961C18.7266 21.9961 18.4883 21.8984 18.293 21.7031C18.0977 21.5078 18 21.2695 18 20.9883V18.3398C18 17.1836 17.75 16.1719 17.25 15.3047C16.75 14.4375 16.1641 14.0039 15.4922 14.0039H8.50781C7.83594 14.0039 7.25 14.4375 6.75 15.3047C6.25 16.1719 6 17.1836 6 18.3398V20.9883C6 21.2695 5.90234 21.5078 5.70703 21.7031C5.51172 21.8984 5.27344 21.9961 4.99219 21.9961C4.72656 21.9961 4.49609 21.8984 4.30078 21.7031C4.10547 21.5078 4.00781 21.2695 4.00781 20.9883V18.3398C4.00781 17.4492 4.125 16.6133 4.35938 15.832C4.57812 15.0664 4.89062 14.3984 5.29688 13.8281C5.70312 13.2578 6.17969 12.8086 6.72656 12.4805C7.27344 12.1523 7.86719 11.9883 8.50781 11.9883H15.4922C16.1328 11.9883 16.7266 12.1523 17.2734 12.4805C17.8203 12.8086 18.2969 13.2578 18.7031 13.8281C19.1094 14.3984 19.4219 15.0664 19.6406 15.832C19.875 16.6133 19.9922 17.4492 19.9922 18.3398V20.9883C19.9922 21.2695 19.8945 21.5078 19.6992 21.7031C19.5039 21.8984 19.2734 21.9961 19.0078 21.9961ZM15.375 8.35547C15.6406 8.07422 15.8516 7.75391 16.0078 7.39453C16.1641 7.03516 16.2422 6.64453 16.2422 6.22266C16.2422 6.16016 16.2422 6.10156 16.2422 6.04688C16.2422 5.99219 16.2344 5.94141 16.2188 5.89453V5.91797C16.1094 4.82422 15.6562 3.90625 14.8594 3.16406C14.0625 2.42188 13.1094 2.03516 12 2.00391C10.8906 2.03516 9.93359 2.42969 9.12891 3.1875C8.32422 3.94531 7.875 4.86328 7.78125 5.94141V5.96484C7.76562 6.01172 7.75781 6.05469 7.75781 6.09375C7.75781 6.13281 7.75781 6.17578 7.75781 6.22266C7.75781 6.64453 7.83594 7.03906 7.99219 7.40625C8.14844 7.77344 8.35938 8.08984 8.625 8.35547C9.03125 8.71484 9.49609 9 10.0195 9.21094C10.543 9.42188 11.0938 9.52734 11.6719 9.52734C11.7344 9.52734 11.793 9.52734 11.8477 9.52734C11.9023 9.52734 11.9609 9.52734 12.0234 9.52734H12C12.0312 9.52734 12.0664 9.52734 12.1055 9.52734C12.1445 9.52734 12.1875 9.52734 12.2344 9.52734C12.25 9.52734 12.2695 9.52734 12.293 9.52734C12.3164 9.52734 12.3438 9.52734 12.375 9.52734C12.9531 9.52734 13.5 9.42188 14.0156 9.21094C14.5312 9 14.9844 8.71484 15.375 8.35547ZM11.9531 7.51172C11.9062 7.52734 11.8633 7.53516 11.8242 7.53516C11.7852 7.53516 11.7422 7.53516 11.6953 7.53516C11.3828 7.53516 11.0859 7.48438 10.8047 7.38281C10.5234 7.28125 10.2734 7.13672 10.0547 6.94922C9.96094 6.85547 9.88672 6.75 9.83203 6.63281C9.77734 6.51562 9.75 6.38672 9.75 6.24609C9.75 6.23047 9.75 6.21484 9.75 6.19922C9.75 6.18359 9.75 6.16797 9.75 6.15234C9.8125 5.57422 10.0547 5.07812 10.4766 4.66406C10.8984 4.25 11.4062 4.02734 12 3.99609C12.5781 4.02734 13.0781 4.24219 13.5 4.64062C13.9219 5.03906 14.1641 5.51953 14.2266 6.08203V6.10547C14.2266 6.12109 14.2305 6.14062 14.2383 6.16406C14.2461 6.1875 14.25 6.20703 14.25 6.22266C14.25 6.36328 14.2227 6.49609 14.168 6.62109C14.1133 6.74609 14.0391 6.85547 13.9453 6.94922C13.7266 7.13672 13.4766 7.28125 13.1953 7.38281C12.9141 7.48438 12.6172 7.53516 12.3047 7.53516C12.2578 7.53516 12.2148 7.53516 12.1758 7.53516C12.1367 7.53516 12.0938 7.52734 12.0469 7.51172C12.0469 7.51172 12.043 7.51172 12.0352 7.51172C12.0273 7.51172 12.0156 7.51172 12 7.51172C11.9844 7.51172 11.9727 7.51172 11.9648 7.51172C11.957 7.51172 11.9531 7.51172 11.9531 7.51172Z" fill="#637381"/>
</svg>
