<svg width="40" height="41" viewBox="0 0 40 41" fill="none" xmlns="http://www.w3.org/2000/svg">
<path d="M0 20.5508C0 9.50509 8.95431 0.550781 20 0.550781C31.0457 0.550781 40 9.50509 40 20.5508C40 31.5965 31.0457 40.5508 20 40.5508C8.95431 40.5508 0 31.5965 0 20.5508Z" fill="#1877F2" fill-opacity="0.12"/>
<g opacity="0.32">
<path d="M20.5845 16.3204C20.8511 15.7844 21.001 15.1802 21.001 14.541C21.001 13.9018 20.8511 13.2976 20.5845 12.7617C21.1308 12.0213 22.0093 11.541 23.0001 11.541C24.6569 11.541 26.0001 12.8842 26.0001 14.541C26.0001 16.1979 24.6569 17.541 23.0001 17.541C22.0093 17.541 21.1308 17.0608 20.5845 16.3204Z" fill="#1877F2"/>
<path d="M22.0598 28.3068C22.6564 28.4576 23.312 28.541 24.0001 28.541C26.7615 28.541 29.0001 27.1979 29.0001 25.541C29.0001 23.8842 26.7615 22.541 24.0001 22.541C23.3111 22.541 22.6547 22.6246 22.0574 22.7759C23.2614 23.4943 24.001 24.4688 24.001 25.542C24.001 26.6145 23.2623 27.5885 22.0598 28.3068Z" fill="#1877F2"/>
</g>
<path d="M17.001 18.541C19.2101 18.541 21.001 16.7502 21.001 14.541C21.001 12.3319 19.2101 10.541 17.001 10.541C14.7918 10.541 13.001 12.3319 13.001 14.541C13.001 16.7502 14.7918 18.541 17.001 18.541Z" fill="#1877F2"/>
<path d="M17.001 29.542C20.867 29.542 24.001 27.7512 24.001 25.542C24.001 23.3329 20.867 21.542 17.001 21.542C13.135 21.542 10.001 23.3329 10.001 25.542C10.001 27.7512 13.135 29.542 17.001 29.542Z" fill="#1877F2"/>
</svg>
